<?xml version="1.0" encoding="UTF-8" standalone="no"?>
<!-- Created with Inkscape (http://www.inkscape.org/) -->
<svg
   width="210mm"
   height="297mm"
   viewBox="0 0 210 297"
   version="1.1"
   id="svg5"
   xml:space="preserve">
   <defs
     id="defs2" />
   <g id="layer26" style="display:inline">
     <g id="windham" classname="town">
       <title>windham, VT</title>
       <desc>windham is a town in Vermont, United States.</desc>
       <path
         style="display:inline;fill:#ff6600;fill-opacity:1;stroke-width:12.1157;stroke-linecap:round;stroke-linejoin:bevel;stroke-dashoffset:3;paint-order:stroke markers fill"
         d="m 551.30354,488.09764 c -4.70807,-2.22731 -14.0111,-5.78602 -20.6734,-7.90825 -13.38595,-4.26399 -17.53812,-7.84907 -17.53812,-15.14282 0,-5.06163 2.13384,-8.56338 11.13466,-18.27257 3.55934,-3.83946 8.92634,-11.8939 11.92666,-17.89874 4.10295,-8.21165 5.67595,-10.2884 6.34599,-8.37827 0.54314,1.54838 0.0187,3.21094 -1.34367,4.25957 -1.9253,1.48192 -1.95512,1.90333 -0.21549,3.04522 3.09675,2.03269 6.45412,-0.52555 8.98243,-6.84442 2.97804,-7.44286 2.87249,-9.37462 -0.35276,-6.45581 -2.4678,2.23333 -2.65462,2.21456 -3.32097,-0.33355 -0.42007,-1.60634 -2.43222,-3.07913 -4.96755,-3.63598 -2.34382,-0.51479 -4.84202,-1.68094 -5.55155,-2.59144 -1.88663,-2.421 -4.5052,-10.73057 -3.38149,-10.73057 4.07345,0 40.45419,11.85867 41.82612,13.63364 1.15622,1.49588 1.74521,7.4985 1.74521,17.7858 v 15.52788 l -4.34405,4.10067 -4.34406,4.10068 0.90943,-4.88659 0.90942,-4.88659 -5.63669,6.28276 c -3.91039,4.3586 -5.63784,5.53447 -5.64046,3.83946 -0.003,-1.86084 -1.16869,-2.44329 -4.89037,-2.44329 -3.41286,0 -4.88659,-0.6316 -4.88659,-2.09426 0,-4.01969 -2.36291,-2.05233 -3.96751,3.30337 -0.88944,2.96868 -1.61717,6.11006 -1.61717,6.98084 0,2.5479 8.56119,1.85469 10.62199,-0.86007 1.63676,-2.15615 1.85995,-2.17773 1.89913,-0.18356 0.0372,1.89245 1.74642,2.23283 10.51631,2.09425 l 10.4719,-0.16548 0.26853,6.28276 c 0.48748,11.40534 -0.45363,20.19915 -2.50272,23.38583 -2.92979,4.55631 -11.57043,4.20484 -22.38316,-0.91047 z m 8.58298,-2.57995 3.37934,-3.83947 0.0441,3.83947 c 0.0353,3.0758 0.69027,3.83946 3.29274,3.83946 2.84111,0 3.16865,-0.5448 2.61117,-4.34318 -0.3731,-2.54214 0.0646,-4.77707 1.05549,-5.38947 0.96246,-0.59484 -1.46355,-1.46501 -5.62248,-2.01671 -5.36156,-0.71124 -7.62412,-0.4837 -8.47123,0.85192 -0.88479,1.39502 -1.16083,1.41311 -1.1772,0.0771 -0.0117,-0.95987 -0.93592,-1.74521 -2.0537,-1.74521 -1.77898,0 -1.77898,-0.71804 0,-5.76022 2.81946,-7.9912 2.61375,-8.57385 -2.15618,-6.10722 -4.29991,2.22356 -5.84366,4.42431 -2.09426,2.98553 2.49832,-0.9587 2.48745,-1.03971 0.5905,4.40189 -1.30116,3.73252 -1.00114,5.17135 2.22692,10.67961 2.05187,3.50126 4.01525,6.36592 4.36306,6.36592 0.34782,0 2.15309,-1.72776 4.01172,-3.83946 z m -16.07879,-15.7069 c 0,-6.05007 -0.37231,-6.98085 -2.79233,-6.98085 -2.42003,0 -2.79234,0.93078 -2.79234,6.98085 0,6.05006 0.37231,6.98084 2.79234,6.98084 2.42002,0 2.79233,-0.93078 2.79233,-6.98084 z m 17.90532,3.03721 c 1.65807,-1.65807 3.48598,-2.21122 5.23563,-1.58436 2.61621,0.93732 2.61342,0.98104 -0.10416,1.63331 -2.56216,0.61496 -2.58947,0.75844 -0.33127,1.74056 3.76088,1.63565 6.9394,-1.60999 5.04437,-5.15088 -1.14856,-2.14611 -1.0578,-3.11046 0.37838,-4.02052 1.37175,-0.86924 1.01674,-1.2031 -1.29584,-1.21862 -1.75186,-0.0117 -3.55942,0.95384 -4.01681,2.14578 -0.71088,1.85251 -1.21917,1.75116 -3.50099,-0.69809 -1.46816,-1.57588 -3.20596,-2.86524 -3.86178,-2.86524 -1.72472,0 -2.93544,3.83475 -1.98923,6.30054 0.44576,1.16162 0.035,3.04645 -0.91285,4.18851 -2.6252,3.16317 2.1395,2.74406 5.35455,-0.47099 z m -31.6279,-15.12104 c 2.37581,-2.15007 2.55323,-2.15007 2.55323,0 0,3.22433 1.32906,2.89736 5.85732,-1.44099 2.74742,-2.63219 3.91586,-5.13179 3.91586,-8.37701 0,-2.54396 -0.62827,-4.62538 -1.39616,-4.62538 -0.7679,0 -1.39617,0.62828 -1.39617,1.39617 0,0.76789 -0.76175,1.39617 -1.69277,1.39617 -0.93102,0 -3.13768,1.72776 -4.90368,3.83946 l -3.21092,3.83947 0.86653,-3.83947 c 0.73316,-3.24848 0.41343,-3.83946 -2.07716,-3.83946 -2.60165,0 -2.94369,0.81113 -2.94369,6.98084 0,7.58346 0.55806,8.1721 4.42761,4.6702 z"
         id="path4532"
         transform="scale(0.26458333)" /></g>
         <g id="g5257">
       <title>Weston, VT</title>
      <desc>Weston is a town in Vermont, United States.</desc>
       <path
         style="display:inline;fill:#f4e3d7;fill-opacity:1;stroke-width:12.1157;stroke-linecap:round;stroke-linejoin:bevel;stroke-dashoffset:3;paint-order:stroke markers fill"
         d="m 493.2505,379.22084 c -9.761,-2.077 -18.15342,-4.18252 -18.64983,-4.67893 -0.4964,-0.4964 0.10763,-6.82888 1.34229,-14.07216 3.08595,-18.10408 2.9143,-22.36099 -1.08938,-27.01555 -3.19011,-3.70872 -3.98186,-3.90024 -18.31742,-4.43091 l -14.98319,-0.55463 0.82171,-5.99502 c 0.45194,-3.29726 2.64859,-11.2675 4.88145,-17.71165 2.23286,-6.44415 4.81027,-16.39493 5.72759,-22.11286 2.25068,-14.02913 3.77785,-18.53362 7.44345,-21.95485 5.6052,-5.23154 9.89414,-5.27121 18.78558,-0.17375 4.42758,2.53833 15.9036,7.81186 25.50226,11.71895 l 17.45211,7.1038 -0.16074,9.02033 c -0.12998,7.29493 -2.88884,56.95476 -3.23526,58.23529 -0.0519,0.19197 -1.66511,0.34904 -3.58485,0.34904 -2.57062,0 -3.49042,-0.74285 -3.49042,-2.81894 0,-2.36772 -0.61457,-2.6715 -3.83946,-1.89785 -5.23844,1.25671 -5.35734,1.4968 -2.37391,4.79346 2.23475,2.46937 2.31752,3.07235 0.57318,4.17569 -1.1213,0.70926 -3.10114,1.29917 -4.39963,1.31093 -2.45732,0.0223 -4.73703,2.46394 -3.47697,3.724 0.39847,0.39848 2.97508,-0.34346 5.7258,-1.64876 4.54375,-2.15615 5.30329,-2.1754 8.30225,-0.2104 2.46198,1.61314 3.70364,1.76019 4.88527,0.57856 1.18164,-1.18164 1.57947,1.41422 1.56525,10.21331 -0.0242,14.97566 -0.84314,18.11662 -4.68132,17.95483 -1.6382,-0.0691 -10.96481,-1.82492 -20.72581,-3.90193 z m -39.07011,-62.62702 c -0.32064,-4.98754 -1.02784,-6.73361 -2.86884,-7.08321 -2.06685,-0.39249 -2.44329,0.62735 -2.44329,6.61924 0,6.2154 0.35148,7.08322 2.86883,7.08322 2.55077,0 2.82166,-0.73388 2.4433,-6.61925 z m 8.67297,3.06725 c 0.74275,-1.9536 1.75254,-5.15399 2.24396,-7.11199 l 0.8935,-3.55999 -4.37277,2.26125 c -4.4407,2.29638 -6.10756,4.55016 -2.27853,3.08083 1.15184,-0.44201 2.09426,-0.66215 2.09426,-0.4892 0,0.17294 -0.58442,2.35219 -1.29871,4.84277 -1.56436,5.45458 0.70567,6.26991 2.71829,0.97633 z m 40.46548,-0.19963 c 0,3.04515 0.64076,3.75163 3.40264,3.75163 3.109,0 3.33421,-0.42171 2.60966,-4.88659 -0.56494,-3.48136 -0.27204,-4.88659 1.01856,-4.88659 3.06258,0 0.52473,-1.48126 -3.71818,-2.17018 -2.20592,-0.35817 -5.42439,-0.97079 -7.15215,-1.36138 -2.30835,-0.52183 -3.18432,-0.0552 -3.30333,1.75975 -0.15275,2.32938 -0.19828,2.33089 -0.80046,0.0266 -0.38837,-1.48614 -1.97497,-2.4433 -4.05007,-2.4433 h -3.41157 l 3.61888,7.14152 3.61888,7.14151 4.08357,-3.9123 4.08357,-3.91231 z m -30.71571,-0.43688 c 3.33631,-3.33632 3.47409,-4.67696 0.71586,-6.96609 -3.35529,-2.78464 -6.52412,-0.69361 -5.44778,3.59487 0.61268,2.44113 0.27337,4.0813 -1.01283,4.89587 -1.53736,0.97362 -1.43291,1.22932 0.50911,1.24631 1.34382,0.0118 3.69985,-1.23517 5.23564,-2.77096 z m 8.94084,0.9689 c 3.62259,-2.6489 2.45797,-8.5167 -1.81012,-9.12007 -3.01898,-0.42679 -3.26145,-0.0768 -2.51892,3.63585 0.46654,2.33273 0.13025,4.79947 -0.77816,5.70788 -2.31,2.31 1.89399,2.1259 5.1072,-0.22366 z m 4.79887,-20.96824 c 3.19366,-0.17853 5.80665,0.10472 5.80665,0.62942 0,1.44848 11.79167,-0.39845 12.38548,-1.93993 0.28493,-0.73964 1.02239,-0.52877 1.6388,0.46861 0.91823,1.48572 1.51843,1.48337 3.32142,-0.013 1.84661,-1.53254 2.20066,-1.46899 2.20066,0.39501 0,1.40096 0.77347,1.92458 2.09425,1.41775 1.31307,-0.50387 2.09426,-2.63799 2.09426,-5.72125 v -4.91762 l -9.77318,0.96302 c -8.83358,0.87044 -9.78378,0.72 -9.88341,-1.56481 -0.0704,-1.61373 -0.37575,-1.86411 -0.84451,-0.6924 -0.40385,1.00949 -2.30295,2.43185 -4.22021,3.16079 -2.26378,0.86069 -3.20678,2.05277 -2.68973,3.40019 0.57293,1.49302 -0.17776,2.07485 -2.67701,2.07485 -3.04582,0 -3.36076,-0.448 -2.55943,-3.64074 0.8317,-3.31376 0.66075,-3.50533 -1.9034,-2.13304 -4.22716,2.26231 -6.68655,10.69765 -2.66956,9.15619 1.02975,-0.39516 4.48527,-0.86453 7.67892,-1.04305 z m -21.87762,-1.85766 c 2.37581,-2.15008 2.55323,-2.15008 2.55323,0 0,3.02619 3.19435,2.95421 5.88696,-0.13265 3.70022,-4.24201 5.1669,-8.16805 4.2958,-11.49911 -0.80175,-3.06591 -0.93556,-3.09822 -2.72065,-0.65696 -1.03259,1.41215 -1.87743,2.0238 -1.87743,1.35923 0,-0.66456 -1.57069,0.26729 -3.49043,2.07078 -3.47867,3.26805 -3.49042,3.26901 -3.49042,0.28719 0,-2.24221 -0.61222,-2.77907 -2.44329,-2.14253 -2.70685,0.94098 -5.93372,4.46583 -5.93372,6.48165 0,0.71515 1.04838,0.438 2.32972,-0.61589 2.11327,-1.73814 2.24623,-1.49458 1.43108,2.62138 -1.00996,5.09955 -0.25332,5.58665 3.45915,2.22691 z"
         id="path4460"
         transform="scale(0.26458333)" /></g><g
       id="g5261">
       <title>Londonderry, VT</title>
      <desc>Londonderry is a town in Vermont, United States.</desc>
       <path
         style="display:inline;fill:#d28f62;fill-opacity:1;stroke-width:12.1157;stroke-linecap:round;stroke-linejoin:bevel;stroke-dashoffset:3;paint-order:stroke markers fill"
         d="m 485.86673,463.69477 c -11.51839,-4.04485 -23.29857,-8.78344 -26.17816,-10.53021 l -5.23564,-3.17595 v -13.6684 -13.6684 l 5.23564,-1.0827 c 3.1775,-0.6571 4.2675,-1.30873 2.77283,-1.65768 -2.29887,-0.5367 -2.27564,-0.83781 0.34904,-4.52384 2.95313,-4.14728 3.61938,-7.00823 1.63206,-7.00823 -1.79559,0 -5.39428,4.40174 -7.42153,9.07765 -1.80619,4.16602 -1.81708,4.14939 -2.28695,-3.49297 -0.74059,-12.04557 0.82989,-19.12438 5.39682,-24.32583 7.27751,-8.28862 17.53209,-8.91401 39.8676,-2.43138 5.28174,1.53297 11.80212,3.22992 14.48975,3.77101 2.68762,0.54109 6.45728,1.80121 8.37701,2.80026 3.50205,1.82252 12.26924,16.7591 10.73656,18.29178 -0.44957,0.44957 -2.69178,0.91167 -4.98269,1.02688 -2.29091,0.11522 -4.62744,0.67163 -5.19228,1.23647 -1.66438,1.66438 -3.70814,1.17456 -2.99681,-0.71823 3.11068,-8.27728 2.42037,-8.58159 -3.95881,-1.74522 -5.14505,5.51379 -6.34946,6.28509 -5.73108,3.67014 0.75496,-3.19252 0.54924,-3.28578 -5.76247,-2.61235 -3.59995,0.3841 -7.75393,1.19765 -9.23105,1.80789 -2.01971,0.83439 -2.49999,0.61665 -1.93681,-0.87808 3.21601,-8.53559 2.60307,-8.90171 -3.68579,-2.20156 -5.3807,5.7326 -6.35149,6.30248 -6.35149,3.72853 0,-2.56833 -0.59395,-2.92058 -3.83947,-2.27708 -2.1117,0.4187 -6.20244,1.16812 -9.09052,1.66538 -6.28839,1.08271 -7.38725,2.40957 -4.438,5.35882 1.62212,1.62211 2.88597,1.83909 4.7868,0.8218 1.84346,-0.98659 2.74982,-0.88589 3.16641,0.35181 0.45217,1.34338 1.10664,1.30236 2.90497,-0.18211 1.50904,-1.24567 2.3213,-1.3678 2.3213,-0.34904 0,1.92355 15.12981,2.11004 18.11334,0.22327 1.3404,-0.84766 2.39809,-0.74985 3.03497,0.28065 0.71203,1.15207 1.57535,1.08562 3.17823,-0.24466 1.47317,-1.22261 2.20067,-1.30832 2.20067,-0.25926 0,2.55703 22.97129,2.0752 25.13103,-0.52713 2.68333,-3.23321 3.76452,-2.50047 3.09016,2.09425 -0.33811,2.30368 -1.11649,4.18851 -1.72973,4.18851 -0.61324,0 -1.54097,2.5214 -2.06163,5.60311 -1.12465,6.65677 -7.25582,13.39517 -13.7006,15.05752 -4.40517,1.13626 -4.4575,1.25315 -5.63335,12.58184 -0.73545,7.08564 -1.79752,11.40489 -2.79234,11.35596 -0.883,-0.0434 -11.0296,-3.38838 -22.54799,-7.43322 z m -23.05585,-27.04299 c -0.0327,-6.57751 -1.54978,-10.12222 -4.33228,-10.12222 -2.22462,0 -2.6295,1.07488 -2.6295,6.98084 0,6.51546 0.2327,6.98084 3.49042,6.98084 2.88158,0 3.4871,-0.66973 3.47136,-3.83946 z m 8.95885,-2.68006 c 1.22178,-3.58574 2.06619,-6.67026 1.87645,-6.85449 -0.18973,-0.18423 -2.54394,0.83839 -5.23156,2.27249 -3.35945,1.7926 -4.06848,2.62576 -2.26877,2.66599 2.15701,0.0482 2.47036,0.7958 1.78011,4.24703 -1.30828,6.54139 1.37512,4.91406 3.84377,-2.33102 z m 39.92612,2.03471 c 0,3.55403 0.57952,4.48481 2.79234,4.48481 2.26046,0 2.79234,-0.93078 2.79234,-4.88659 0,-2.79233 0.69808,-4.88659 1.62886,-4.88659 3.60242,0 -0.39392,-1.71945 -5.37675,-2.31337 -2.92996,-0.34924 -6.11256,-0.8943 -7.07242,-1.21124 -1.01438,-0.33494 -1.82483,0.72089 -1.93535,2.52131 l -0.19013,3.09756 -0.60505,-3.14138 c -0.42954,-2.23009 -1.58944,-3.14138 -3.99838,-3.14138 -4.22843,0 -4.22009,0.18624 0.35836,7.99876 l 3.75167,6.40175 3.92725,-4.70422 3.92726,-4.70422 z m -29.31954,-4.16026 c 0,-3.46846 -0.49335,-4.04459 -3.14138,-3.66851 -3.63213,0.51585 -5.014,5.72566 -2.36523,8.91723 2.41598,2.91107 5.50661,-0.0348 5.50661,-5.24872 z m 9.26949,5.15153 c 0.44266,-1.15356 0.40073,-3.70745 -0.0932,-5.67531 -0.67734,-2.69873 -1.65781,-3.4699 -3.99004,-3.13826 -3.15899,0.4492 -4.78353,4.91217 -3.24626,8.91823 1.01144,2.63577 6.30688,2.56016 7.32947,-0.10466 z"
         id="path4250"
         transform="scale(0.26458333)" /></g>
         <g id="g5265">
       <title>Jamaica, VT</title>
      <desc>Jamaica is a town in Vermont, United States.</desc>
       <path
         style="display:inline;fill:#f4e3d7;fill-opacity:1;stroke-width:12.1157;stroke-linecap:round;stroke-linejoin:bevel;stroke-dashoffset:3;paint-order:stroke markers fill"
         d="m 452.72542,527.40275 c -0.61083,-36.34979 0.9337,-70.15748 3.2052,-70.15748 2.7119,0 73.72413,25.96262 86.85688,31.75555 l 15.03572,6.63233 -0.81042,10.47465 c -1.15104,14.87721 -5.91008,42.91438 -8.47324,49.91875 -3.77384,10.31282 -2.78906,10.11988 -51.65428,10.11988 h -43.5088 z m 24.62468,9.77318 c -0.0768,-0.95986 -0.23386,-3.94418 -0.34904,-6.6318 -0.16655,-3.886 -0.78119,-4.88659 -3.00177,-4.88659 -2.42513,0 -2.79233,0.93078 -2.79233,7.07795 0,6.54151 0.23808,7.04413 3.14138,6.6318 1.72776,-0.24538 3.07855,-1.23149 3.00176,-2.19136 z m 7.84196,-1.1087 c 0.74275,-1.9536 1.75254,-5.15399 2.24396,-7.11199 l 0.8935,-3.55999 -4.37277,2.26125 c -4.4764,2.31483 -6.09508,4.54537 -2.21921,3.05806 1.78302,-0.68421 1.99651,0.0108 1.24079,4.03913 -1.06403,5.67174 0.25841,6.45642 2.21373,1.31354 z m 20.91912,2.23823 c 0,-0.72258 -0.52353,-1.63733 -1.16339,-2.03279 -0.63986,-0.39545 -0.88269,-2.6315 -0.53962,-4.96899 0.46683,-3.18069 0.0777,-4.24997 -1.54655,-4.24997 -1.19368,0 -2.56278,0.63501 -3.04246,1.41114 -0.55204,0.89322 -1.97735,0.63701 -3.88347,-0.69809 -4.52884,-3.17211 -5.54496,-2.59821 -4.91739,2.77737 0.31377,2.68762 0.0684,4.88659 -0.54533,4.88659 -0.6137,0 -1.11582,0.62828 -1.11582,1.39617 0,2.50901 2.8567,1.47059 6.36329,-2.31309 3.80439,-4.105 5.87555,-3.69021 3.52301,0.70556 -2.17397,4.06211 -1.9683,4.39987 2.67922,4.39987 2.30368,0 4.18851,-0.5912 4.18851,-1.31377 z m 25.92123,-3.57282 c -0.64899,-3.45945 -0.40894,-4.88659 0.82194,-4.88659 1.12997,0 1.26186,-0.47681 0.37675,-1.36193 -1.48566,-1.48566 -21.53525,-3.47926 -21.53525,-2.14133 0,1.95032 5.75482,11.88027 6.88511,11.88027 0.68403,0 2.9185,-1.99041 4.96549,-4.42312 l 3.72182,-4.42312 -0.96075,5.1212 c -0.91526,4.87874 -0.78078,5.12121 2.84044,5.12121 3.58805,0 3.74978,-0.274 2.88445,-4.88659 z M 473.36467,512.4574 c 2.35868,-2.35868 3.42696,-2.79391 3.42696,-1.39617 0,2.56975 13.9593,2.87088 16.47479,0.35539 1.30309,-1.30309 1.67541,-1.30309 1.67541,0 0,1.21315 4.78365,1.6754 17.33792,1.6754 9.53585,0 18.33172,-0.38136 19.54636,-0.84746 1.30961,-0.50254 2.20844,-2.49138 2.20844,-4.88659 0,-4.55061 -0.63784,-4.77274 -5.58467,-1.94488 -4.58407,2.62049 -5.58468,2.57369 -5.58468,-0.26121 0,-1.83861 -0.96016,-1.45567 -4.37582,1.74521 l -4.37582,4.10068 0.9019,-5.93372 c 0.55713,-3.66548 0.36189,-5.93372 -0.51077,-5.93372 -0.77697,0 -1.41267,0.94242 -1.41267,2.09426 0,1.24853 -1.28409,2.09425 -3.17977,2.09425 -1.74887,0 -4.57611,0.97804 -6.28276,2.17342 -2.80845,1.96712 -3.10299,1.96712 -3.10299,0 0,-1.72824 -1.73465,-2.17342 -8.4688,-2.17342 -4.65784,0 -9.77034,0.69656 -11.36112,1.54792 -2.63867,1.41218 -2.83068,1.22547 -2.18943,-2.12899 0.61685,-3.22687 0.34192,-3.56236 -2.24617,-2.74093 -4.08135,1.29537 -6.73798,5.049 -4.58597,6.47967 1.12145,0.74554 0.43448,2.1359 -2.21326,4.47942 -2.11171,1.86908 -3.83947,3.7426 -3.83947,4.16337 0,2.00844 4.68164,0.39885 7.74239,-2.6619 z"
         id="path4178"
         transform="scale(0.26458333)" /></g>
         <g id="g5269">
       <title>Wardsboro, VT</title>
      <desc>Wardsboro is a town in Vermont, United States.</desc>
       <path
         style="display:inline;fill:#008000;fill-opacity:1;stroke-width:12.1157;stroke-linecap:round;stroke-linejoin:bevel;stroke-dashoffset:3;paint-order:stroke markers fill"
         d="m 493.32022,628.25554 c -13.56211,-0.94667 -28.16952,-2.15991 -32.46092,-2.69608 l -7.80254,-0.97487 v -27.82291 -27.82291 h 45.37549 45.37548 l -0.0304,3.83946 c -0.0167,2.11171 -1.25959,14.8343 -2.76197,28.27242 -1.50239,13.43813 -2.74528,25.53244 -2.76198,26.87625 -0.0366,2.94202 -6.78643,2.99139 -44.9332,0.32864 z m -24.9056,-20.74761 c 0,-5.98509 -1.91012,-10.64578 -4.36303,-10.64578 -2.17182,0 -2.61781,1.07039 -2.61781,6.28276 0,5.77083 0.2844,6.28275 3.49042,6.28275 2.03079,0 3.49042,-0.80279 3.49042,-1.91973 z m 8.85911,-4.36302 c 2.35336,-6.90672 1.47007,-7.69884 -4.6706,-4.18851 -2.81591,1.60972 -2.99683,2.00487 -0.9362,2.04478 2.10622,0.0408 2.39287,0.78413 1.63428,4.23798 -1.44044,6.55829 1.56399,4.9744 3.97252,-2.09425 z m 8.87686,1.47878 c -0.4932,-3.03924 -0.17565,-5.05027 0.86445,-5.47445 0.90422,-0.36876 0.35606,-0.72008 -1.21812,-0.7807 -5.34736,-0.20593 -8.2091,5.71217 -4.53755,9.38372 3.4281,3.4281 5.71758,1.96368 4.89122,-3.12857 z m 10.08928,0.96451 c -0.054,-2.1117 -0.56011,-5.01508 -1.12475,-6.45194 -0.95771,-2.43714 -1.16873,-2.39029 -3.14412,0.69808 -4.2367,6.62376 -4.25719,6.79742 -0.95833,8.12047 4.91006,1.96924 5.33312,1.7777 5.2272,-2.36661 z m 10.69933,0 c -0.82721,-3.64703 -0.76482,-3.70363 1.24481,-1.12932 1.16362,1.49058 2.11567,3.21834 2.11567,3.83947 0,0.62112 0.62828,1.12931 1.39617,1.12931 0.76789,0 1.50178,-2.35603 1.63087,-5.23563 l 0.2347,-5.23563 0.54766,5.23563 c 0.54202,5.18163 0.6116,5.23563 6.74615,5.23563 h 6.19848 v -6.28275 -6.28276 h -8.37701 c -6.78059,0 -8.37702,0.4297 -8.37702,2.25482 0,2.07566 -0.27345,2.07566 -3.4413,0 -1.89271,-1.24015 -3.77754,-2.25482 -4.1885,-2.25482 -0.41097,0 -0.74721,2.82724 -0.74721,6.28276 0,5.45966 0.38565,6.28275 2.94369,6.28275 2.49164,0 2.80996,-0.58961 2.07284,-3.83946 z m -40.70131,-15.20754 c -0.89804,3.60545 -0.73869,3.85327 1.65423,2.57262 6.25403,-3.34706 10.0915,-10.97303 7.67915,-15.26028 -1.26106,-2.24116 -1.52096,-2.1462 -2.78898,1.01895 -0.76909,1.91973 -1.45802,2.54801 -1.53096,1.39617 -0.0906,-1.43133 -1.22352,-0.85425 -3.57891,1.82307 l -3.44631,3.91732 v -3.52446 c 0,-2.74942 -0.53729,-3.33768 -2.44329,-2.6751 -2.70685,0.94098 -5.93372,4.46583 -5.93372,6.48165 0,0.71515 1.04682,0.438 2.32627,-0.61589 2.12055,-1.74671 2.24878,-1.43461 1.44992,3.52919 l -0.87636,5.44535 4.24137,-4.04919 4.24137,-4.04918 z m 22.84003,2.01375 c 1.30309,-1.30309 1.6754,-1.27844 1.6754,0.11092 0,1.26308 1.24131,1.5137 4.2377,0.85558 7.20344,-1.58213 27.87418,-1.73608 27.87418,-0.20759 0,0.77178 1.57069,-0.0724 3.49042,-1.87585 3.36769,-3.16377 3.49043,-3.17914 3.49043,-0.43698 0,2.27872 0.69188,2.70984 3.49042,2.17486 1.91973,-0.36698 3.49042,-0.75521 3.49042,-0.86273 0,-0.10752 0.60719,-2.31264 1.3493,-4.90025 l 1.34931,-4.70475 -12.79451,1.0009 c -11.4894,0.8988 -12.61048,0.77916 -10.99049,-1.17281 3.51371,-4.23375 0.76174,-4.86048 -5.03403,-1.14644 -3.23178,2.07099 -5.90195,4.86492 -5.93371,6.20874 -0.0349,1.47818 -1.14114,2.44329 -2.80047,2.44329 -2.72115,0 -2.72087,-0.051 0.0351,-6.48036 1.5278,-3.56421 2.56924,-6.68894 2.31431,-6.94387 -0.25492,-0.25492 -2.7962,1.12162 -5.64729,3.05899 -3.01086,2.04593 -8.14353,3.87302 -12.24459,4.35873 -7.60805,0.90106 -11.03434,3.23064 -11.03434,7.50241 0,2.24191 1.0049,2.69261 6.00353,2.69261 3.30194,0 6.75746,-0.75393 7.67893,-1.6754 z"
         id="path4037"
         transform="scale(0.26458333)" /></g>
         <g id="g5494">
       <title>Dover, VT</title>
      <desc>Dover is a town in Vermont, United States.</desc>
       <path
         style="fill:#ffe680;fill-opacity:1;stroke-width:12.1157;stroke-linecap:round;stroke-linejoin:bevel;stroke-dashoffset:3;paint-order:stroke markers fill"
         d="m 418.39095,661.83983 c 0.31939,-16.47899 1.03736,-30.41845 1.5955,-30.97659 0.78361,-0.78361 115.75051,3.37007 116.26109,4.20044 0.0838,0.13633 -7.12386,52.64585 -7.74019,56.3889 -0.0316,0.19197 -24.95139,0.34904 -55.37729,0.34904 h -55.31982 z m 17.91179,21.7593 c 0,-6.65014 -1.80528,-11.34387 -4.36303,-11.34387 -2.2106,0 -2.61782,1.08591 -2.61782,6.98084 0,6.51546 0.2327,6.98085 3.49043,6.98085 2.48207,0 3.49042,-0.75626 3.49042,-2.61782 z m 8.68024,-4.36303 c 1.22781,-3.83946 1.94481,-6.98084 1.59333,-6.98084 -1.29445,0 -8.8774,4.28505 -8.8774,5.01653 0,0.41597 1.25717,0.3573 2.79372,-0.13038 2.51973,-0.79973 2.65666,-0.5262 1.39616,2.78915 -1.69234,4.45119 -1.77054,6.28639 -0.26787,6.28639 0.62132,0 2.13425,-3.14138 3.36206,-6.98085 z m 30.44353,3.83947 0.031,-3.14138 2.41225,2.92987 c 1.80873,2.19685 4.2461,3.00869 9.74214,3.24489 l 7.32988,0.31502 v -7.08436 -7.08435 h -8.37702 c -6.51545,0 -8.37701,0.46539 -8.37701,2.09425 0,2.64828 -0.68276,2.62607 -4.93571,-0.16057 l -3.4413,-2.25483 v 7.14142 c 0,6.21064 0.36394,7.14142 2.79234,7.14142 1.95578,0 2.80163,-0.94113 2.82338,-3.14138 z m -21.16595,-2.0951 c -0.22156,-2.11216 0.0823,-4.62526 0.67526,-5.58467 1.58002,-2.55654 -2.62213,-2.19802 -5.26975,0.44961 -2.25807,2.25807 -2.90837,6.39942 -1.2632,8.04459 0.51193,0.51193 2.12997,0.93078 3.59564,0.93078 2.07413,0 2.57557,-0.85132 2.26205,-3.84031 z m 9.86742,8.4e-4 c -0.054,-2.1117 -0.55308,-4.99507 -1.10914,-6.40748 -0.86411,-2.19486 -1.40731,-1.83214 -3.73824,2.49614 -2.38057,4.42044 -2.46142,5.23218 -0.63607,6.3861 3.71018,2.34543 5.58502,1.49929 5.48345,-2.47476 z m -7.68052,-15.10854 c 2.94138,-2.94138 2.76322,-5.61379 -0.59836,-8.97537 -3.51089,-3.51088 -6.23806,-3.53512 -9.68711,-0.0861 -2.26879,2.26879 -2.85074,6.28987 -1.57844,10.90638 0.39033,1.41629 10.11494,-0.096 11.86391,-1.84494 z m 8.94213,-0.78291 c 0.77397,-2.01501 3.02503,-1.3582 3.02503,0.88264 0,2.4892 0.66963,2.58133 4.36954,0.6012 1.90628,-1.02021 3.33461,-1.0409 4.51011,-0.0653 2.85422,2.3688 8.34271,1.29401 12.41192,-2.43059 5.12562,-4.69152 4.83823,-6.20631 -1.04712,-5.51923 -2.68763,0.31377 -4.88659,-0.005 -4.88659,-0.70798 0,-1.21708 -16.53326,-0.0898 -20.39019,1.3902 -0.96437,0.37006 -2.40542,2.54324 -3.20234,4.82928 -1.36295,3.90978 -1.26518,4.09932 1.64765,3.19393 1.70313,-0.52937 3.30602,-1.50773 3.56199,-2.17412 z"
         id="path3965"
         transform="scale(0.26458333)" /></g>
         <g id="g5498">
       <title>Somerset, VT</title>
      <desc>Somerset is a town in Vermont, United States.</desc>
       <path
         id="path3890"
         style="fill:#ff6600;fill-opacity:1;stroke-width:12.1157;stroke-linecap:round;stroke-linejoin:bevel;stroke-dashoffset:3;paint-order:stroke markers fill"
         d="M 356.89258 602.44727 L 356.11329 608.38087 C 354.53602 620.38406 352.58967 646.24983 353.2168 646.87696 C 353.57239 647.23255 354.25997 646.49223 354.74415 645.23048 C 355.22831 643.96873 356.72513 642.93555 358.07227 642.93555 C 359.97823 642.93555 360.37247 643.78773 359.84375 646.7754 C 359.28672 649.92317 359.49665 650.29996 361.01368 648.86915 C 362.09057 647.85347 366.54113 647.12501 371.66016 647.12501 C 379.76029 647.12501 380.45508 647.36458 380.45508 650.16016 L 380.45508 653.19532 L 383.59766 650.34571 C 385.97107 648.19214 388.01893 647.65735 391.97461 648.16016 C 397.5251 648.86568 398.24092 649.72395 395.53516 652.4297 C 394.23207 653.73278 394.54069 654.10548 396.92969 654.10548 C 399.06063 654.10548 400.00196 653.25862 400.00196 651.33985 C 400.00196 648.37363 405.32578 646.18916 409.06251 647.62306 C 411.5572 648.58036 414.53941 643.31332 415.97071 635.41798 C 416.51175 632.43492 416.51365 623.79616 415.97657 616.22071 L 415.00001 602.44727 L 385.94727 602.44727 L 356.89258 602.44727 z M 409.25977 650.47071 C 408.99235 650.47933 408.69545 650.79337 408.32813 651.38477 C 407.56426 652.61461 407.60163 653.58992 408.42383 653.87306 C 409.16712 654.12901 409.7754 654.9133 409.7754 655.6172 C 409.7754 657.4328 396.17445 657.21283 395.04102 655.37891 C 394.36553 654.28594 393.67697 654.28594 392.58399 655.37891 C 390.53652 657.42639 374.8711 657.38325 374.8711 655.33009 C 374.8711 654.26613 374.31183 654.20903 373.12696 655.15235 C 372.1671 655.91655 368.59521 656.44589 365.18946 656.32813 C 360.49856 656.16594 358.17108 656.87914 355.5918 659.26954 C 352.42411 662.20525 352.29403 662.85204 353.73047 668.55665 C 354.57965 671.92905 355.66655 675.71219 356.14649 676.9629 C 356.78266 678.62073 356.22273 679.23634 354.07813 679.23634 C 351.57691 679.23634 351.13672 680.07191 351.13672 684.82032 L 351.13672 690.40626 L 382.55079 690.40626 L 413.96485 690.40626 L 413.96485 684.82032 L 413.96485 679.23634 L 406.50977 679.23634 C 399.77057 679.23634 398.87135 678.86739 397.14649 675.39649 L 395.23829 671.55665 L 394.73438 675.39649 C 394.45017 677.56555 393.3612 679.23634 392.23047 679.23634 C 390.75898 679.23634 390.22852 677.38507 390.22852 672.24415 C 390.22852 665.60098 390.36871 665.33746 393.02149 666.99415 C 394.55727 667.95326 395.81446 669.21566 395.81446 669.79884 C 395.81446 670.38201 396.5156 670.85938 397.37305 670.85938 C 398.24464 670.85938 398.60944 669.62759 398.20118 668.06641 C 397.53296 665.51114 398.15882 665.27345 405.56836 665.27345 C 411.66375 665.27345 413.87571 664.72893 414.51368 663.06641 C 415.91937 659.40324 415.47419 656.89649 413.41797 656.89649 C 412.34939 656.89649 411.04926 655.20252 410.5293 653.13087 C 410.06833 651.29419 409.70547 650.45635 409.25977 650.47071 z M 380.45508 665.27345 C 382.25458 665.27345 383.24805 666.20555 383.24805 667.89259 C 383.24805 669.33239 383.64117 672.47339 384.1211 674.87306 C 384.92113 678.87318 384.68825 679.23634 381.32813 679.23634 C 377.86098 679.23634 377.66407 678.85996 377.66407 672.25587 C 377.66407 666.2058 378.03506 665.27345 380.45508 665.27345 z M 365.39063 666.19141 C 366.9699 666.06158 366.58188 668.14739 364.87696 673.8379 C 362.99136 680.13149 360.17059 681.18224 361.37891 675.14063 C 362.00979 671.98624 361.64898 670.92504 359.8086 670.53126 C 358.01764 670.14805 358.55675 669.41649 361.95704 667.61134 C 363.54878 666.7663 364.67278 666.25043 365.39063 666.19141 z M 375.0586 666.66993 C 376.38667 666.66993 376.42883 667.06728 375.22657 668.26954 C 374.33688 669.15927 373.98058 671.63923 374.42383 673.85548 C 375.08326 677.15264 374.74862 677.83985 372.48633 677.83985 C 368.9296 677.83985 367.89063 676.69347 367.89063 672.76954 C 367.89063 669.66984 371.41556 666.66993 375.0586 666.66993 z "
         transform="scale(0.26458333)" /></g>
         <g id="g5502">
       <title>Stratton, VT</title>
      <desc>Stratton is a town in Vermont, United States.</desc>
       <path
         style="fill:#c8b7b7;fill-opacity:1;stroke-width:12.1157;stroke-linecap:round;stroke-linejoin:bevel;stroke-dashoffset:3;paint-order:stroke markers fill"
         d="m 419.54871,612.91809 v -13.26361 h -31.41379 -31.4138 v -48.16782 -48.16782 h 45.37548 45.37549 v 42.3624 c 0,23.29931 0.41154,50.94346 0.91453,61.43142 l 0.91454,19.06903 h -14.87623 -14.87622 z m -44.69646,-41.53602 c -0.0358,-5.90548 -1.65337,-9.42414 -4.33228,-9.42414 -2.18567,0 -2.6295,1.06047 -2.6295,6.28276 0,5.77083 0.2844,6.28276 3.49042,6.28276 2.69457,0 3.48608,-0.71627 3.47136,-3.14138 z m 8.87817,-3.14138 c 2.31954,-6.80748 2.00679,-7.20753 -3.27443,-4.18851 -2.61381,1.49419 -2.88548,2.00773 -1.08169,2.04478 2.00529,0.0412 2.18068,0.64932 1.04713,3.63079 -1.67533,4.40645 -1.68318,4.7957 -0.0967,4.7957 0.6957,0 2.22826,-2.82725 3.40567,-6.28276 z m 9.02868,1.4182 c -0.31235,-2.6755 0.0901,-5.139 0.89437,-5.47445 0.80426,-0.33544 0.40768,-0.6595 -0.88128,-0.72012 -2.69676,-0.12684 -6.73153,3.46529 -6.73153,5.99303 0,2.3092 2.8943,5.0661 5.31858,5.0661 1.42506,0 1.81114,-1.34163 1.39986,-4.86456 z m 10.03559,0.79024 c 0,-5.89083 -1.32845,-8.4912 -4.33788,-8.4912 -2.20162,0 -2.64297,1.04914 -2.64297,6.28276 0,5.77083 0.28441,6.28276 3.49043,6.28276 2.92572,0 3.49042,-0.65916 3.49042,-4.07432 z m 10.57274,-0.46323 -0.81846,-4.53755 2.357,4.53755 c 2.24886,4.32934 2.72978,4.53755 10.48072,4.53755 h 8.12371 v -6.28276 -6.28276 h -8.37701 c -6.78059,0 -8.37701,0.4297 -8.37701,2.25482 0,2.07566 -0.27345,2.07566 -3.4413,0 -1.89272,-1.24015 -3.77755,-2.25482 -4.18851,-2.25482 -0.41096,0 -0.74721,2.82724 -0.74721,6.28276 0,5.432 0.39314,6.28276 2.90327,6.28276 2.5126,0 2.79314,-0.61059 2.0848,-4.53755 z m -37.91222,-15.85628 c 1.41149,-0.54163 2.26051,-2.68292 2.35274,-5.93371 l 0.1443,-5.08626 1.39056,5.23563 c 1.25675,4.7318 1.84079,5.23563 6.06909,5.23563 2.98282,0 5.19431,-0.88555 6.10161,-2.44329 1.24476,-2.13714 1.42841,-2.15915 1.46554,-0.17568 0.0366,1.95195 1.99421,2.24177 14.06269,2.08192 10.75679,-0.14247 14.32661,-0.6703 15.33648,-2.26762 1.0931,-1.72897 1.31986,-1.63102 1.33762,0.57777 0.021,2.61546 0.0717,2.61546 3.05046,0 2.84629,-2.49919 2.97296,-2.50613 2.09915,-0.11496 -0.7017,1.92018 -0.33149,2.43132 1.50847,2.08264 1.66835,-0.31616 2.5696,-2.0172 2.85385,-5.38645 l 0.41546,-4.92438 -10.02587,0.56652 c -7.01268,0.39625 -9.74282,0.10852 -9.08406,-0.95738 0.61963,-1.00257 -0.74953,-1.46031 -4.00223,-1.33803 -2.71922,0.10223 -4.94404,0.71234 -4.94404,1.35582 0,2.17766 -19.56618,1.34958 -21.84007,-0.92431 -2.73372,-2.73372 -3.37954,-2.6587 -7.81155,0.90749 -3.10014,2.49451 -3.47847,3.47274 -2.23887,5.78895 1.30685,2.44188 1.12608,2.6916 -1.45912,2.01555 -3.28728,-0.85964 -3.81688,0.33471 -1.27538,2.87621 1.9579,1.9579 1.68135,1.90694 4.49317,0.82794 z"
         id="path3818"
         transform="scale(0.26458333)" /></g>
         <g id="g5506">
       <title>Winhall, VT</title>
      <desc>Winhall is a town in Vermont, United States.</desc>
       <path
         style="fill:#b3525d;fill-opacity:1;stroke-width:12.1157;stroke-linecap:round;stroke-linejoin:bevel;stroke-dashoffset:3;paint-order:stroke markers fill"
         d="m 355.74399,460.56037 c 0.47431,-19.67769 1.21106,-36.1263 1.63722,-36.55246 0.63382,-0.63382 90.47987,2.34552 90.92497,3.01512 0.0748,0.11254 -0.67337,13.71254 -1.66263,30.22224 -0.98926,16.5097 -1.83581,32.05952 -1.88122,34.55518 l -0.0826,4.53755 H 399.78067 354.8816 Z m 16.33499,16.34545 c 0,-5.89083 -1.32845,-8.4912 -4.33789,-8.4912 -2.20162,0 -2.64296,1.04914 -2.64296,6.28276 0,5.77083 0.28441,6.28276 3.49042,6.28276 2.92573,0 3.49043,-0.65916 3.49043,-4.07432 z m 9.3164,-2.16512 c 1.02523,-2.96131 1.6286,-5.61964 1.34083,-5.90741 -0.83144,-0.83145 -7.8649,2.70108 -7.8649,3.95012 0,0.62054 0.95413,0.76211 2.12029,0.31462 1.77094,-0.67958 1.88596,-0.1973 0.69808,2.92704 -1.81065,4.76239 -1.78597,5.30902 0.20972,4.64379 0.89756,-0.29918 2.47075,-2.96686 3.49598,-5.92816 z m 8.56881,1.35285 c -0.32744,-2.80476 0.0536,-4.93355 0.89437,-4.99682 0.80568,-0.0606 0.64316,-0.43923 -0.36114,-0.84136 -2.05287,-0.82198 -7.24909,3.31784 -7.24909,5.77533 0,2.20837 2.9455,4.94944 5.31857,4.94944 1.42676,0 1.81092,-1.34349 1.39729,-4.88659 z m 9.7694,-1.03508 c -0.31318,-4.31963 -1.09033,-6.04706 -2.87262,-6.38514 -2.03834,-0.38664 -2.44329,0.59482 -2.44329,5.92168 0,5.51383 0.39199,6.38513 2.87261,6.38513 2.51533,0 2.81922,-0.73651 2.4433,-5.92167 z m 11.5326,2.78029 0.0945,-3.14138 1.51503,3.14138 c 1.94844,4.04005 10.76492,4.59838 11.02345,0.69808 0.15425,-2.32695 0.19237,-2.32695 0.80046,0 0.35118,1.34382 1.84899,2.4433 3.32847,2.4433 2.25733,0 2.68996,-1.01048 2.68996,-6.28276 0,-5.35198 -0.41368,-6.28276 -2.79233,-6.28276 -1.90865,0 -2.85251,0.99416 -2.98247,3.14138 l -0.19014,3.14138 -0.60505,-3.14138 c -0.48724,-2.52965 -1.53773,-3.14138 -5.39455,-3.14138 -3.47813,0 -4.78948,0.61737 -4.78948,2.25483 0,2.07565 -0.27345,2.07565 -3.4413,0 -1.89272,-1.24016 -3.77755,-2.25483 -4.18851,-2.25483 -0.41096,0 -0.7472,2.82724 -0.7472,6.28276 0,5.35198 0.41367,6.28276 2.79233,6.28276 1.93698,0 2.82129,-0.96228 2.88683,-3.14138 z m -34.7596,-21.50796 c 2.37581,-2.15008 2.55323,-2.15008 2.55323,0 0,3.28551 1.85355,2.86865 6.09237,-1.37017 l 3.68081,-3.68081 v 3.64209 3.64208 l 17.80115,0.006 c 24.24862,0.009 26.71251,-0.5157 26.56638,-5.65501 -0.0634,-2.23056 1.02363,-5.31409 2.41567,-6.85227 1.39204,-1.53818 2.1609,-3.16677 1.70859,-3.61908 -1.69426,-1.69426 -9.57108,1.20028 -11.57059,4.25191 -1.4683,2.2409 -3.04299,2.98508 -5.37371,2.53954 -1.81324,-0.34663 -3.7178,0.051 -4.23235,0.88352 -0.65599,1.06141 -1.50029,0.9964 -2.8255,-0.21757 -1.58405,-1.45106 -1.53708,-2.12675 0.2902,-4.17458 2.01784,-2.2614 1.90196,-2.4433 -1.5566,-2.4433 -2.53054,0 -4.20309,1.02352 -5.18145,3.17079 -1.21792,2.67305 -2.30906,3.08837 -6.95091,2.64569 -3.52841,-0.33648 -5.5062,-1.22467 -5.5062,-2.4727 0,-1.07119 -0.62828,-1.94761 -1.39617,-1.94761 -0.7679,0 -1.39617,0.94241 -1.39617,2.09425 0,1.15184 -0.62828,2.09426 -1.39617,2.09426 -0.76789,0 -1.32177,-0.47121 -1.23083,-1.04713 0.0909,-0.57592 0.071,-2.30368 -0.0444,-3.83946 -0.19595,-2.60875 -0.33065,-2.63312 -2.0486,-0.37075 -1.01137,1.33188 -2.23223,2.02822 -2.71302,1.54743 -0.48079,-0.48079 -2.12553,0.62846 -3.65497,2.465 l -2.7808,3.33916 -0.0464,-3.14138 c -0.0548,-3.70859 -1.12874,-3.90396 -5.32047,-0.96796 -3.62354,2.53803 -4.15487,5.12343 -0.78735,3.83119 1.95571,-0.75047 2.17815,-0.20114 1.43107,3.53424 -0.99733,4.98663 -0.22318,5.45741 3.47324,2.1122 z"
         id="path3677"
         transform="scale(0.26458333)" /></g>
         <g id="g5510">
       <title>Langrove, VT</title>
      <desc>Langrove is a town in Vermont, United States.</desc>
       <path
         style="fill:#ffcc00;fill-opacity:1;stroke-width:12.1157;stroke-linecap:round;stroke-linejoin:bevel;stroke-dashoffset:3;paint-order:stroke markers fill"
         d="m 426.52956,406.27328 c 0,-15.90424 0.0295,-16.04989 2.90282,-14.31073 2.58959,1.56744 3.34633,1.23129 7.01287,-3.11518 l 4.11005,-4.87221 -0.90463,4.52317 c -0.83935,4.19672 -0.63556,4.52318 2.82357,4.52318 3.53281,0 3.67818,-0.26669 2.77362,-5.08842 -0.68364,-3.6441 -0.50345,-4.8096 0.63482,-4.10611 0.87417,0.54027 1.58941,0.31695 1.58941,-0.49626 0,-0.81321 -1.49216,-1.47856 -3.3159,-1.47856 -1.82375,0 -5.27927,-0.39268 -7.67893,-0.87261 -3.89128,-0.77825 -4.37325,-0.51407 -4.45752,2.4433 l -0.0945,3.3159 -1.47403,-3.04949 c -0.88764,-1.83636 -1.08779,-6.14084 -0.50313,-10.82031 l 0.9709,-7.77082 h 14.60843 c 14.01029,0 14.54925,0.11058 13.16314,2.70055 -2.32637,4.34687 -1.57849,5.24977 1.3935,1.68233 3.54506,-4.25536 3.47563,-7.48684 -0.232,-10.79829 -2.95204,-2.63659 -2.9694,-2.63241 -2.00017,0.48169 0.966,3.10373 0.82098,3.14138 -12.09962,3.14138 h -13.07733 l 0.55738,-4.77441 c 0.31227,-2.67479 2.03094,-6.15875 3.90816,-7.9223 3.31626,-3.11547 3.35076,-3.11797 3.35076,-0.24289 0,2.32172 0.63075,2.74244 3.14138,2.09535 1.72776,-0.44531 3.90675,-1.80012 4.84219,-3.01067 1.48466,-1.92129 1.70645,-1.79723 1.74521,0.97622 0.043,3.0793 0.17351,3.11047 4.23291,1.01127 2.38521,-1.23344 4.18851,-1.54943 4.18851,-0.73394 0,0.78761 1.57069,1.43202 3.49042,1.43202 1.91973,0 3.49042,-0.62827 3.49042,-1.39616 0,-0.7679 -0.65038,-1.39617 -1.44529,-1.39617 -0.96012,0 -0.92214,-0.97751 0.11312,-2.91192 2.11864,-3.95871 0.98355,-4.66806 -6.72924,-4.20532 -3.6291,0.21773 -10.05388,0.49456 -14.27729,0.61517 -7.36268,0.21028 -7.66331,0.0791 -7.29978,-3.18487 0.20853,-1.8723 0.67421,-3.69924 1.03484,-4.05987 0.54988,-0.54989 33.08407,2.40182 33.6937,3.0569 0.60314,0.64812 -2.5936,28.91624 -3.76216,33.26797 -0.93755,3.49145 -3.56588,6.95904 -8.24269,10.87469 -8.51497,7.12913 -10.45277,12.39297 -10.42841,28.32771 l 0.0187,12.21648 h -10.8841 -10.88409 z m 13.80909,-31.72808 1.15359,-3.11845 1.01559,3.19984 c 1.62399,5.11674 6.94177,3.55039 7.49673,-2.20817 0.4939,-5.12497 -2.55699,-7.40439 -6.04067,-4.51319 -1.44256,1.19721 -2.07648,1.24489 -2.07648,0.15619 0,-0.86192 -1.55872,-1.56712 -3.46382,-1.56712 -4.09913,0 -6.30185,5.71959 -3.50197,9.09323 2.41358,2.90819 4.07381,2.58874 5.41703,-1.04233 z"
         id="path3604"
         transform="scale(0.26458333)" /></g>
         <g id="g5514">
       <title>Sunderland, VT</title>
      <desc>Sunderland is a town in Vermont, United States.</desc>
       <path
         style="fill:#ff00ff;fill-opacity:1;stroke-width:12.1157;stroke-linecap:round;stroke-linejoin:bevel;stroke-dashoffset:3;paint-order:stroke markers fill"
         d="m 255.2809,577.0938 c 0.50384,-11.64048 0.91607,-33.316 0.91607,-48.16782 v -27.00331 h 46.77165 46.77166 v 48.16782 48.16782 h -47.68773 -47.68772 z m 19.28478,-0.4761 c -0.40288,-5.06556 -1.01343,-6.28276 -3.15144,-6.28276 -2.21204,0 -2.65175,1.04181 -2.65175,6.28276 0,5.59062 0.34718,6.28276 3.15144,6.28276 2.87829,0 3.10813,-0.54456 2.65175,-6.28276 z m 9.09788,0.0433 c 2.2481,-6.49348 1.65705,-7.35456 -3.37678,-4.91956 -3.08688,1.4932 -3.36344,1.97121 -1.40207,2.42342 2.86811,0.66126 2.84147,0.52567 1.03604,5.27431 -1.04035,2.73632 -0.97888,3.55856 0.23575,3.15369 0.90366,-0.30122 2.48183,-2.97056 3.50706,-5.93186 z m 8.99457,4.49424 c 0.0884,-0.95987 0.0426,-2.88216 -0.10186,-4.27176 -0.14446,-1.3896 0.56361,-3.52212 1.57348,-4.73894 1.61684,-1.94816 1.42057,-2.08813 -1.64334,-1.17194 -3.35495,1.00322 -6.9699,4.37979 -6.9699,6.5103 0,1.46932 4.1427,5.41755 5.6844,5.41755 0.71305,0 1.3688,-0.78535 1.45722,-1.74521 z m 10.45987,-0.46323 c -0.46611,-1.21465 -0.84746,-4.04189 -0.84746,-6.28276 0,-3.14354 -0.63791,-4.07432 -2.79234,-4.07432 -2.37866,0 -2.79234,0.93078 -2.79234,6.28276 0,5.83959 0.25674,6.28276 3.6398,6.28276 2.74541,0 3.43155,-0.54267 2.79234,-2.20844 z m 10.37779,-1.63103 0.0559,-3.83946 2.08294,3.83946 c 1.9134,3.52694 2.76119,3.83947 10.41537,3.83947 h 8.33242 v -6.28276 -6.28276 h -9.22447 c -7.62593,0 -9.08521,0.36292 -8.42083,2.09425 0.442,1.15184 0.27201,2.09426 -0.37776,2.09426 -0.64977,0 -1.96353,-0.94242 -2.91947,-2.09426 -3.39404,-4.08956 -5.58468,-2.44658 -5.58468,4.18851 0,5.35198 0.41368,6.28276 2.79234,6.28276 2.10185,0 2.80616,-0.94941 2.84824,-3.83947 z m -45.87028,-19.9749 c 0.33456,-1.00368 2.35485,-1.0571 6.31635,-0.16701 3.20345,0.71977 11.89715,1.10657 19.31934,0.85956 10.60448,-0.35291 14.1009,-0.98998 16.32426,-2.97437 2.76006,-2.46342 2.80541,-2.44832 1.85164,0.61611 -0.95041,3.05363 -0.70209,3.14138 8.88955,3.14138 6.95163,0 9.87358,-0.51569 9.88864,-1.74521 0.0156,-1.27708 0.29671,-1.31255 1.0478,-0.13223 1.57992,2.48277 14.06267,0.68169 14.82704,-2.13934 1.56148,-5.76284 2.27779,-12.73724 1.30818,-12.73724 -0.58977,0 -3.41869,2.67017 -6.28649,5.93371 -4.76669,5.42448 -5.21928,5.65052 -5.2737,2.63382 -0.0564,-3.12817 -0.39579,-3.24948 -6.52079,-2.33099 -3.55369,0.53291 -7.43242,1.3416 -8.6194,1.79709 -1.59322,0.61137 -1.91196,0.21651 -1.21767,-1.50849 0.51726,-1.28515 1.32632,-3.29077 1.79792,-4.45692 0.70063,-1.73252 0.25379,-1.88242 -2.4433,-0.81962 -11.65388,4.59227 -13.77201,5.90622 -13.77201,8.54331 0,1.52548 -0.64024,2.7736 -1.42276,2.7736 -0.8477,0 -1.04536,-1.55189 -0.48903,-3.83946 0.90831,-3.73489 0.8585,-3.77292 -1.82855,-1.39617 -4.14903,3.66989 -4.89669,2.97594 -2.63239,-2.4433 2.6816,-6.41797 0.88682,-6.18164 -5.33224,0.70211 -4.12203,4.5626 -5.04905,5.07528 -5.04905,2.79234 0,-2.36886 -0.92787,-2.79636 -6.06941,-2.79636 -4.87571,0 -6.39312,0.61782 -7.71539,3.14138 l -1.646,3.14138 0.63269,-3.25167 c 0.47697,-2.45136 0.11984,-3.05487 -1.451,-2.45208 -1.54462,0.59273 -1.86462,0.10941 -1.23694,-1.86826 1.2099,-3.81204 -3.39371,-2.33654 -6.7134,2.15171 -2.16094,2.92162 -2.2695,3.81086 -0.69809,5.71865 1.66262,2.01853 1.42597,2.15074 -2.22252,1.24161 -3.59609,-0.89607 -3.86721,-0.75712 -2.27235,1.16458 2.04877,2.46861 7.9618,2.9482 8.70907,0.70638 z"
         id="path2073"
         transform="scale(0.26458333)" /></g>
         <g id="g5518">
       <title>Peru, VT</title>
      <desc>Peru is a town in Vermont, United States.</desc>
       <path
         style="fill:#ab60e2;fill-opacity:1;stroke-width:12.1157;stroke-linecap:round;stroke-linejoin:bevel;stroke-dashoffset:3;paint-order:stroke markers fill"
         d="m 356.25573,420.0141 c -2.90266,-2.90265 0.68883,-13.03091 4.62077,-13.03091 1.9379,0 -0.1408,-11.74534 -2.39693,-13.54347 -1.78983,-1.42648 -1.94919,-4.75259 -1.0703,-22.3387 0.99765,-19.96234 1.16517,-20.8136 4.94241,-25.11619 2.45593,-2.79749 4.52225,-7.40386 5.55691,-12.3878 l 1.64715,-7.93428 5.79917,0.78334 c 3.18954,0.43084 17.57934,2.18747 31.97733,3.90363 14.39799,1.71616 26.17816,3.6606 26.17816,4.32099 0,0.66039 -1.72279,4.47827 -3.82843,8.48418 l -3.82844,7.28347 -0.43956,-4.41729 c -0.41608,-4.18133 -0.66043,-4.35395 -4.57441,-3.23143 -2.27416,0.65222 -4.28029,1.18221 -4.45805,1.17776 -0.17777,-0.004 -1.89391,0.57235 -3.81364,1.28178 -5.43606,2.0089 -11.16935,3.22764 -11.16935,2.37432 0,-0.42559 1.01467,-2.32239 2.25483,-4.21511 3.03263,-4.62838 1.48191,-4.33182 -5.12904,0.98088 -5.3392,4.2907 -7.60469,9.24866 -3.5077,7.6765 5.11097,-1.96126 11.80688,-2.37973 17.51689,-1.09473 4.63465,1.043 6.52218,0.9755 7.3085,-0.26135 0.81513,-1.28214 1.06506,-1.27431 1.0815,0.0339 0.0124,0.99051 0.96427,1.33957 2.27806,0.83542 1.90508,-0.73105 2.01385,-0.41224 0.69808,2.04629 -2.36268,4.41472 -1.90231,5.56665 1.93183,4.83371 2.55885,-0.48916 3.49042,-0.0648 3.49042,1.58978 0,1.92721 -2.02808,2.25701 -13.87929,2.25701 -7.74682,0 -14.26054,0.61689 -14.74217,1.39617 -0.53572,0.86683 2.07976,1.39617 6.89845,1.39617 h 7.76133 v 6.98085 c 0,6.39933 0.27368,6.98084 3.28547,6.98084 3.10123,0 3.24786,-0.39148 2.61471,-6.98084 -0.65965,-6.86502 -0.60632,-6.98085 3.21367,-6.98085 3.79601,0 3.82691,0.0636 1.35741,2.79234 -2.35334,2.60041 -2.36131,2.79234 -0.11592,2.79234 2.11858,0 2.2917,0.97396 1.42693,8.02797 -0.5413,4.41538 -1.52892,8.23739 -2.19472,8.49336 -0.6658,0.25596 -1.21054,7.95234 -1.21054,17.10306 v 16.63768 h -33.27536 c -18.30144,0 -33.6942,-0.41885 -34.20613,-0.93078 z m 14.24282,-19.88911 c 1.96366,-5.87235 1.27568,-6.68315 -3.64931,-4.3008 -3.02038,1.46104 -3.33262,1.97875 -1.45539,2.41315 1.87013,0.43276 2.20957,1.51996 1.56058,4.99849 -1.0526,5.64188 1.31106,3.56718 3.54412,-3.11084 z m 9.06616,4.76395 c 0.442,-1.15184 0.43893,-3.04467 -0.007,-4.20629 -0.44576,-1.16161 -0.035,-3.04644 0.91285,-4.1885 2.00415,-2.41485 1.42751,-2.55571 -3.22344,-0.78742 -4.16732,1.58441 -5.65775,6.39908 -2.85006,9.20677 2.62931,2.62931 4.15186,2.62208 5.16747,-0.0246 z m 9.75957,-3.14138 c -1.06082,-7.61524 -1.56211,-8.72605 -3.93788,-8.72605 -1.63491,0 -2.13807,1.64284 -2.13807,6.98084 0,6.46743 0.25025,6.98084 3.40264,6.98084 3.13082,0 3.34438,-0.41824 2.67331,-5.23563 z m 10.73397,1.39617 0.0559,-3.83946 2.08295,3.83946 c 1.91665,3.53296 2.75422,3.83946 10.49186,3.83946 h 8.40892 l -0.42554,-6.6318 -0.42554,-6.6318 -8.84224,-0.41868 c -8.61159,-0.40776 -8.81623,-0.3367 -7.84484,2.72386 0.98052,3.08936 0.93606,3.10235 -2.62703,0.76773 -1.99344,-1.30616 -4.27481,-2.37482 -5.06972,-2.37482 -1.57683,0 -2.02457,10.12468 -0.51451,11.63473 2.20852,2.20853 4.65731,0.6962 4.70979,-2.90868 z M 375.73069,382.6958 c -0.56836,-2.26449 -0.16629,-3.60319 1.24481,-4.14468 1.14638,-0.43991 2.08432,-1.76197 2.08432,-2.9379 0,-1.56364 -1.50043,-2.13808 -5.58468,-2.13808 -5.24951,0 -5.58467,0.24643 -5.58467,4.10611 0,2.25836 -0.63852,4.50074 -1.41894,4.98307 -2.61438,1.61577 0.13827,3.47634 5.14311,3.47634 4.53125,0 4.88367,-0.28639 4.11605,-3.34486 z m 15.93028,-0.1778 c 2.66763,-2.41418 2.75671,-2.39275 2.75671,0.66331 0,2.30617 0.59575,2.92949 2.20844,2.31064 1.21464,-0.4661 3.28909,-0.84746 4.60988,-0.84746 1.78735,0 2.43687,-1.2496 2.53996,-4.88659 0.15866,-5.597 -1.26288,-6.31283 -3.46576,-1.74521 l -1.51503,3.14138 -0.0945,-3.0598 c -0.0874,-2.8307 -0.67906,-3.02495 -7.90167,-2.59429 -8.60864,0.51331 -9.72843,1.17173 -11.04119,6.49213 -0.84836,3.43829 -0.6301,3.61424 4.12534,3.32552 2.7616,-0.16766 6.26161,-1.4275 7.77781,-2.79963 z"
         id="path3531"
         transform="scale(0.26458333)" /></g>
         <g id="g5522">
       <title>Mt Tabor, VT</title>
      <desc>Mt Tabor is a town in Vermont, United States.</desc>
       <path
         style="fill:#e2a160;fill-opacity:1;stroke-width:12.1157;stroke-linecap:round;stroke-linejoin:bevel;stroke-dashoffset:3;paint-order:stroke markers fill"
         d="m 353.98262,337.93771 c -2.7813,-3.35126 -5.5432,-14.36521 -6.51034,-25.96199 -0.54671,-6.55559 0.0965,-23.87926 1.6085,-43.32242 l 2.5195,-32.39866 14.07881,0.84028 c 7.74335,0.46215 30.25692,1.61822 50.03016,2.56906 24.23422,1.16535 35.95134,2.23078 35.95134,3.26905 0,1.39078 -14.35929,74.18034 -15.98922,81.05193 -0.67762,2.85679 -0.79233,2.85124 -35.13525,-1.6998 -18.95048,-2.51127 -34.90782,-4.28634 -35.46076,-3.94461 -0.55294,0.34174 -1.43986,3.93389 -1.97092,7.98256 -0.94747,7.2231 -3.88616,13.64398 -6.24455,13.64398 -0.65617,0 -1.95094,-0.91322 -2.87727,-2.02938 z m 11.11551,-39.15759 c 0,-5.35198 -0.41368,-6.28276 -2.79234,-6.28276 -2.37865,0 -2.79233,0.93078 -2.79233,6.28276 0,5.35197 0.41368,6.28275 2.79233,6.28275 2.37866,0 2.79234,-0.93078 2.79234,-6.28275 z m 9.3164,0.0433 c 1.02523,-2.9613 1.62861,-5.61963 1.34084,-5.9074 -0.83145,-0.83144 -7.8649,2.70109 -7.8649,3.95013 0,0.62053 0.94241,0.76661 2.09425,0.3246 2.47442,-0.94952 2.54725,-0.48196 0.687,4.41085 -1.04035,2.73633 -0.97888,3.55857 0.23575,3.15369 0.90366,-0.30122 2.48183,-2.97055 3.50706,-5.93186 z m 8.56881,1.35286 c -0.4299,-3.68239 -0.0375,-4.9265 1.59246,-5.04854 1.56356,-0.11709 1.45708,-0.34445 -0.38423,-0.82047 -2.70489,-0.69927 -7.92409,3.12496 -7.92409,5.80617 0,2.20836 2.94551,4.94943 5.31858,4.94943 1.42676,0 1.81092,-1.34348 1.39728,-4.88659 z m 10.25668,-1.39616 c -0.40288,-5.06556 -1.01343,-6.28276 -3.15144,-6.28276 -2.21203,0 -2.65175,1.0418 -2.65175,6.28276 0,5.59061 0.34718,6.28275 3.15144,6.28275 2.87829,0 3.10813,-0.54455 2.65175,-6.28275 z m 10.95084,3.17976 v -3.10299 l 2.17342,3.10299 c 1.83139,2.61468 3.47923,3.10299 10.47126,3.10299 h 8.29785 v -6.28275 -6.28276 h -9.0751 c -7.4232,0 -9.0751,0.41043 -9.0751,2.25482 0,2.07566 -0.27344,2.07566 -3.4413,0 -1.89271,-1.24015 -3.77754,-2.25482 -4.1885,-2.25482 -0.41097,0 -0.74721,2.82724 -0.74721,6.28276 0,5.35197 0.41368,6.28275 2.79234,6.28275 1.95474,0 2.79234,-0.93078 2.79234,-3.10299 z m -39.04628,-25.43063 0.0464,4.10067 2.96207,-3.49042 c 2.9008,-3.41823 2.94578,-3.42516 2.17484,-0.33499 -0.76086,3.0497 -0.48035,3.14878 8.37096,2.95685 l 9.1582,-0.19859 -3.35151,-2.57676 c -1.84334,-1.41722 -2.56617,-2.59073 -1.60631,-2.6078 2.50644,-0.0446 2.16291,-2.82339 -0.34904,-2.82339 -1.15184,0 -2.09425,-0.90533 -2.09425,-2.01185 0,-3.83855 -3.03998,-3.85799 -7.02,-0.0449 l -4.00076,3.83297 -0.92374,-3.68046 c -1.81942,-7.24917 -9.18003,-3.18851 -10.92209,6.02545 l -0.91118,4.8193 4.20996,-4.03339 4.20995,-4.03339 z m 34.85777,-2.66682 c 0,-4.87635 0.6175,-6.39253 3.14138,-7.71325 2.83762,-1.4849 2.67592,-1.57107 -1.67223,-0.89114 -5.90627,0.92359 -11.24233,4.25891 -11.24233,7.02705 0,1.13414 0.56946,2.06207 1.26546,2.06207 0.696,0 0.93686,1.25655 0.53525,2.79234 -0.61487,2.35124 -0.0428,2.79234 3.62113,2.79234 4.20371,0 4.35134,-0.20593 4.35134,-6.06941 z m 13.2636,4.88123 c 3.07157,-0.56499 8.09778,-0.57647 11.16935,-0.0255 4.85469,0.8708 6.08655,0.5252 9.42414,-2.64392 2.11171,-2.0051 3.83947,-4.15638 3.83947,-4.78061 0,-0.62422 -3.74994,-1.13495 -8.3332,-1.13495 -7.34001,0 -8.22857,-0.29121 -7.45536,-2.4433 0.71898,-2.00114 0.26889,-1.89505 -2.48711,0.58624 -2.23503,2.01224 -4.53699,2.80529 -6.85537,2.36174 -4.07647,-0.77991 -7.70872,1.68517 -9.0282,6.12712 -1.04467,3.51681 0.0407,3.73478 9.72628,1.9532 z"
         id="path3183"
         transform="scale(0.26458333)" /></g>
         <g id="g5526">
       <title>Glastonbury, VT</title>
      <desc>Glastonbury is a town in Vermont, United States.</desc>
       <path
         style="fill:#608cbe;fill-opacity:1;stroke-width:12.1157;stroke-linecap:round;stroke-linejoin:bevel;stroke-dashoffset:3;paint-order:stroke markers fill"
         d="m 249.23,683.77365 c 0.008,-2.8796 1.25794,-21.25667 2.77846,-40.83793 1.52053,-19.58127 2.77083,-37.01593 2.77846,-38.74369 l 0.0139,-3.14138 h 47.58067 47.58067 l -0.78155,3.83947 c -1.63399,8.02717 -3.62882,27.8431 -3.62882,36.04737 0,6.77317 -0.57933,9.07058 -2.79234,11.07332 -2.51113,2.27255 -2.79234,2.29434 -2.79234,0.21639 0,-3.42341 -13.24191,-3.3082 -15.24602,0.13265 -1.35532,2.32695 -1.42511,2.32695 -1.46555,0 -0.0269,-1.54616 -1.13051,-2.44329 -3.00574,-2.44329 -2.47574,0 -2.67733,-0.34457 -1.22522,-2.09425 1.45174,-1.74924 1.25184,-2.09426 -1.21338,-2.09426 -1.6233,0 -3.64034,1.10308 -4.48231,2.45128 -1.24695,1.99668 -3.23744,2.39007 -10.73306,2.12124 -5.50304,-0.19737 -9.70571,-1.04244 -10.45471,-2.10224 -1.00618,-1.42366 -1.39768,-1.41123 -1.99071,0.0632 -0.40602,1.00949 -2.30688,2.43184 -4.22414,3.16078 -2.26379,0.8607 -3.20679,2.05278 -2.68974,3.4002 0.53985,1.40682 -0.0973,2.07484 -1.97892,2.07484 -2.26296,0 -2.61345,-0.64417 -1.89908,-3.49042 0.98981,-3.94372 -0.27145,-4.34667 -4.23107,-1.35177 -4.11693,3.11389 -5.5551,2.45456 -3.0351,-1.39145 1.24015,-1.89271 2.25482,-4.09168 2.25482,-4.88659 0,-2.47838 -4.0797,-1.58162 -5.87376,1.29112 -1.58955,2.54528 -1.8853,2.57677 -4.23437,0.45089 -2.34727,-2.12425 -2.79396,-2.08579 -6.33089,0.54505 -4.54283,3.37905 -5.71374,8.68378 -2.44443,11.07435 2.15254,1.57398 2.13741,1.80411 -0.20482,3.11489 -1.391,0.77844 -2.11046,1.83397 -1.5988,2.34562 1.72837,1.72838 6.88514,-0.94008 8.44882,-4.37198 0.9562,-2.09865 1.92111,-2.81369 2.51034,-1.86029 0.54636,0.88403 4.48698,1.47747 9.18198,1.38277 4.52368,-0.0913 12.62279,-0.19909 17.99804,-0.23965 6.80942,-0.0514 10.51412,-0.73602 12.21648,-2.25762 1.99423,-1.78248 2.44329,-1.82312 2.44329,-0.22109 0,1.54223 2.71629,1.96252 12.67763,1.9616 10.67626,-9.9e-4 12.97286,-0.40483 14.54777,-2.55815 1.76801,-2.41733 1.89591,-2.37921 2.34197,0.69809 0.25951,1.79028 -0.47543,4.02846 -1.6332,4.97373 -1.79584,1.46623 -1.81603,1.90868 -0.1374,3.01221 2.74141,1.8022 5.44743,0.46537 7.79179,-3.84931 1.83236,-3.37238 2.00079,-2.38476 2.0521,12.03299 l 0.0559,15.70689 h -47.46974 -47.46974 l 0.0139,-5.23563 z m 20.41247,-3.49042 c -0.46302,-1.72776 -0.85043,-4.86914 -0.86092,-6.98084 -0.0144,-2.90233 -0.70062,-3.83947 -2.8114,-3.83947 -2.42003,0 -2.79234,0.93078 -2.79234,6.98085 0,6.59842 0.20013,6.98084 3.65326,6.98084 3.10723,0 3.52743,-0.46953 2.8114,-3.14138 z m 7.52044,-0.41062 c 0.74276,-1.9536 1.75254,-5.15399 2.24397,-7.11199 l 0.8935,-3.55999 -4.37278,2.26125 c -4.47639,2.31484 -6.09507,4.54537 -2.21921,3.05806 1.78302,-0.6842 1.99651,0.0108 1.24079,4.03914 -1.06402,5.67173 0.25841,6.45641 2.21373,1.31353 z m 20.39556,-0.81103 c -0.47994,-2.39966 -0.87261,-5.54104 -0.87261,-6.98084 0,-1.68704 -0.99283,-2.61782 -2.79234,-2.61782 -2.42002,0 -2.79233,0.93078 -2.79233,6.98085 0,6.6041 0.19779,6.98084 3.66494,6.98084 3.36011,0 3.59236,-0.36289 2.79234,-4.36303 z m 10.61435,0.52357 0.50308,-3.83947 1.90802,3.83947 c 1.75539,3.53234 2.56017,3.83946 10.06092,3.83946 h 8.1529 v -6.98084 -6.98085 h -9.16918 c -8.74702,0 -9.12532,0.13821 -8.21647,3.00173 l 0.95271,3.00172 -4.34905,-3.0968 -4.34904,-3.09679 v 7.07591 c 0,5.21322 0.52689,7.07592 2.00151,7.07592 1.13074,0 2.22039,-1.6704 2.5046,-3.83946 z m -20.46994,-2.4433 c -0.66017,-3.51901 -0.4106,-4.91744 0.89175,-4.99681 1.30244,-0.0794 1.3418,-0.30005 0.14066,-0.78864 -2.89264,-1.17662 -7.40728,2.23765 -7.40728,5.60188 0,3.91897 1.03912,5.07016 4.57658,5.07016 2.34672,0 2.59066,-0.66289 1.79829,-4.88659 z"
         id="path2559"
         transform="scale(0.26458333)" /></g>
         <g id="g5530">
       <title>Manchester, VT</title>
      <desc>Manchester is a town in Vermont, United States.</desc>
       <path
         id="path4603"
         style="fill:#808000;fill-opacity:1;stroke-width:12.1157;stroke-linecap:round;stroke-linejoin:bevel;stroke-dashoffset:3;paint-order:stroke markers fill"
         d="M 253.76758 419.17383 L 255.05078 427.38868 C 255.75558 431.90731 256.92924 435.81436 257.66016 436.07032 C 258.39109 436.32629 258.99024 440.60355 258.99024 445.57618 C 258.99024 450.97281 259.52724 454.28553 260.32422 453.79297 C 261.05857 453.33912 261.32385 452.09327 260.91407 451.0254 C 260.03661 448.73877 265.05585 443.28321 268.03711 443.28321 C 269.17432 443.28321 270.51188 444.90097 271.00782 446.87696 L 271.90821 450.46876 L 276.76953 445.83008 L 281.62891 441.18946 L 280.62305 445.93555 C 279.7164 450.21567 279.87432 450.56902 282.21875 449.52735 C 283.6489 448.89191 287.86544 448.10634 291.58985 447.7793 C 298.158 447.20254 298.33057 447.28192 297.34961 450.46876 L 296.33985 453.75391 L 300.07618 450.30079 C 302.8395 447.74711 304.09478 447.30018 304.89063 448.5879 C 305.69132 449.88344 306.65156 449.57289 308.64063 447.37501 C 310.11128 445.74995 312.57867 443.75968 314.12305 442.95118 C 316.8952 441.49992 316.89726 441.51928 314.27149 444.47657 C 312.79709 446.13713 312.32873 447.47266 313.22266 447.47266 C 314.10957 447.47266 314.83594 448.51236 314.83594 449.78321 C 314.83594 451.93329 315.01287 451.93329 317.38868 449.78321 C 320.81521 446.68223 322.2424 446.86144 320.47071 450.17188 C 318.46914 453.91185 318.56844 454.10352 322.51563 454.10352 C 324.99771 454.10352 326.00586 453.34789 326.00586 451.48633 C 326.00586 449.13987 327.50058 448.22275 330.54297 448.70313 C 331.11889 448.79407 331.58985 447.92528 331.58985 446.77344 C 331.58985 444.45514 333.88131 443.89778 334.61524 446.03711 C 334.87121 446.78322 338.84968 447.56751 343.45704 447.78126 L 351.83399 448.16993 L 352.23438 435.43946 L 352.63282 422.71094 L 341.76172 421.86524 C 335.78309 421.40015 313.53903 420.6033 292.33008 420.09571 L 253.76758 419.17383 z M 351.45704 450.9629 L 348.15625 453.86524 C 345.01311 456.62845 343.12782 456.7801 308.90235 457.02149 C 276.18686 457.25223 272.95118 457.06529 272.95118 454.94922 C 272.95118 452.84674 272.6829 452.86557 270.15821 455.1504 C 267.44177 457.6087 267.36719 457.58944 267.36719 454.42579 L 267.36719 451.17383 L 263.97852 454.35547 C 262.11563 456.10556 259.91654 457.12105 259.0918 456.61133 C 258.06244 455.97515 257.58808 459.97781 257.58008 469.37891 C 257.57341 476.91117 257.16316 486.44834 256.66797 490.57227 L 255.76758 498.07032 L 301.32813 497.51368 C 334.65997 497.10626 347.34455 496.49921 348.58985 495.25391 C 349.72327 494.12049 350.48711 486.43754 350.875 472.25782 L 351.45704 450.9629 z M 272.95118 471.20704 C 275.32983 471.20704 275.74414 472.13827 275.74414 477.49024 C 275.74414 482.84222 275.32983 483.77344 272.95118 483.77344 C 270.57252 483.77344 270.15821 482.84222 270.15821 477.49024 C 270.15821 472.13827 270.57252 471.20704 272.95118 471.20704 z M 300.73438 471.20704 C 302.87239 471.20704 303.48189 472.42469 303.88477 477.49024 C 304.34115 483.22843 304.11267 483.77344 301.23438 483.77344 C 298.43012 483.77344 298.08204 483.08085 298.08204 477.49024 C 298.08204 472.2493 298.52234 471.20704 300.73438 471.20704 z M 326.60938 471.20704 L 335.7793 471.20704 L 335.7793 477.49024 L 335.7793 483.77344 L 327.57227 483.77344 C 320.64166 483.77344 319.02441 483.28377 317.17383 480.63087 L 314.98243 477.49024 L 314.91016 480.63087 C 314.85919 482.81705 313.98625 483.77344 312.04297 483.77344 C 309.66432 483.77344 309.25196 482.84222 309.25196 477.49024 C 309.25196 470.38325 310.07445 469.95393 315.51368 474.23243 L 319.36133 477.25977 L 318.40039 474.23243 C 317.4818 471.33819 317.83954 471.20704 326.60938 471.20704 z M 285.82422 471.50587 C 286.09612 471.4864 286.29646 471.52108 286.40039 471.62501 C 286.68816 471.91278 286.08578 474.5719 285.06055 477.53321 C 284.03532 480.49452 282.4564 483.16364 281.55274 483.46485 C 280.33811 483.86973 280.27606 483.04687 281.31641 480.31055 C 283.17666 475.41774 283.10528 474.95088 280.63086 475.9004 C 279.47902 476.34241 278.53516 476.19672 278.53516 475.57618 C 278.53516 474.48327 283.92097 471.64209 285.82422 471.50587 z M 294.30274 472.93751 C 294.48955 472.94725 294.66689 472.97388 294.83594 473.01758 C 296.67725 473.4936 296.78426 473.72082 295.22071 473.8379 C 293.59075 473.95994 293.19901 475.20433 293.62891 478.88672 C 294.04255 482.42982 293.65724 483.77344 292.23047 483.77344 C 289.8574 483.77344 286.91211 481.03064 286.91211 478.82227 C 286.91211 476.30864 291.50058 472.79128 294.30274 472.93751 z "
         transform="scale(0.26458333)" /></g><g
       id="g5534">
       <title>Dorset, VT</title>
      <desc>Dorset is a town in Vermont, United States.</desc>
       <path
         style="fill:#ffe680;fill-opacity:1;stroke-width:12.1157;stroke-linecap:round;stroke-linejoin:bevel;stroke-dashoffset:3;paint-order:stroke markers fill"
         d="m 341.01426,419.19967 c -0.44359,-1.33088 -10.7465,-1.86353 -43.39758,-2.2436 l -42.81588,-0.49838 v -16.37957 c 0,-9.00876 0.41405,-29.67466 0.92011,-45.92422 l 0.92011,-29.54466 h 41.65481 41.65481 l 7.62471,11.81927 7.62472,11.81927 -2.00945,33.90526 c -1.10519,18.64789 -2.01951,35.00473 -2.03181,36.34855 -0.0169,1.84584 -1.18882,2.44329 -4.79261,2.44329 -2.62363,0 -5.03201,-0.78534 -5.35194,-1.74521 z M 268.2463,385.69162 c -0.46302,-1.72776 -0.85043,-4.86914 -0.86092,-6.98084 -0.0144,-2.90233 -0.70061,-3.83947 -2.8114,-3.83947 -2.42003,0 -2.79234,0.93078 -2.79234,6.98085 0,6.59843 0.20013,6.98084 3.65326,6.98084 3.10723,0 3.52743,-0.46953 2.8114,-3.14138 z m 8.26636,-1.70037 c 1.11265,-2.66296 2.02301,-5.82047 2.02301,-7.0167 0,-1.96715 -0.40017,-1.96801 -4.18851,-0.009 -4.33535,2.24189 -5.83097,4.41944 -2.03494,2.96277 1.78302,-0.68421 1.99652,0.0108 1.24079,4.03913 -1.17056,6.23959 0.35738,6.25187 2.95965,0.0238 z m 19.64964,0.47872 c -0.47993,-2.39966 -0.87261,-5.54104 -0.87261,-6.98084 0,-1.68704 -0.99283,-2.61782 -2.79233,-2.61782 -2.42003,0 -2.79234,0.93078 -2.79234,6.98085 0,6.6041 0.19779,6.98084 3.66494,6.98084 3.36011,0 3.59237,-0.36289 2.79234,-4.36303 z m 10.38603,-0.17452 0.0893,-4.53755 2.25826,4.53755 c 2.16028,4.34065 2.61079,4.53755 10.38198,4.53755 h 8.12371 v -6.98084 -6.98085 h -8.94438 c -8.51036,0 -8.90567,0.14809 -8.14637,3.05165 l 0.79802,3.05164 -4.41915,-3.14671 -4.41915,-3.14672 v 7.07592 c 0,5.35892 0.50817,7.07591 2.09425,7.07591 1.41365,0 2.12327,-1.47464 2.18354,-4.53755 z m -20.24162,-1.74521 c -0.66017,-3.51901 -0.4106,-4.91744 0.89175,-4.99681 1.30244,-0.0794 1.3418,-0.30005 0.14067,-0.78863 -2.89264,-1.17663 -7.40729,2.23764 -7.40729,5.60187 0,3.91897 1.03912,5.07016 4.57658,5.07016 2.34672,0 2.59066,-0.66288 1.79829,-4.88659 z m -3.86177,-24.71219 c 2.32185,-2.32185 2.09326,-5.32193 -0.63524,-8.33688 -4.85025,-5.35947 -12.77807,-1.51367 -12.72479,6.17282 0.0248,3.57117 0.43394,3.83947 5.85562,3.83947 3.20596,0 6.58294,-0.75393 7.50441,-1.67541 z m 8.90716,-1.11693 c 0.77676,-1.71416 0.96681,-1.65081 1.04713,0.34904 0.13897,3.46033 1.79259,3.04394 6.20603,-1.5627 3.29039,-3.43443 3.51057,-4.13163 1.54319,-4.88659 -6.14516,-2.35812 -13.60635,0.63143 -15.01444,6.01599 -0.57755,2.20856 -0.10238,2.72912 2.26929,2.48601 1.64989,-0.16912 3.42685,-1.24991 3.9488,-2.40175 z m 22.08779,1.39617 c 0,-0.7679 -0.60856,-1.39617 -1.35235,-1.39617 -0.7438,0 -0.9921,-0.93881 -0.55179,-2.08623 1.05526,-2.74997 3.30031,-1.27475 3.30031,2.16863 0,1.95982 0.96615,2.70994 3.49042,2.70994 3.44065,0 5.1351,-2.75233 1.74521,-2.8348 -0.96855,-0.0236 -0.65789,-0.67576 0.69808,-1.46554 2.99393,-1.74381 3.19367,-4.07668 0.34905,-4.07668 -1.15184,0 -2.09426,-1.03978 -2.09426,-2.31064 0,-2.08067 -0.24317,-2.0988 -2.44329,-0.18218 -1.34382,1.17065 -3.2556,1.83496 -4.24842,1.47624 -3.53799,-1.27833 -8.66614,0.99132 -8.66614,3.83552 0,1.52766 -0.9375,2.76574 -2.09426,2.76574 -1.15184,0 -2.09425,0.62827 -2.09425,1.39617 0,0.76789 3.14138,1.39617 6.98084,1.39617 3.83947,0 6.98085,-0.62828 6.98085,-1.39617 z"
         id="path1921"
         transform="scale(0.26458333)" /></g>
         <g id="g5538">
         <title>Danby, VT</title>
      <desc>Danby is a town in Vermont, United States.</desc>
       <path
         style="fill:#00ffff;fill-opacity:1;stroke-width:12.1157;stroke-linecap:round;stroke-linejoin:bevel;stroke-dashoffset:3;paint-order:stroke markers fill"
         d="m 256.84389,307.50617 c 0.41985,-5.56722 1.42651,-24.87241 2.23704,-42.90041 0.81052,-18.028 1.65882,-32.96332 1.8851,-33.18961 0.68008,-0.68008 84.57576,4.75909 85.35014,5.53346 0.39389,0.39389 -0.24319,14.78103 -1.41573,31.97142 -1.17253,17.19039 -2.13394,34.77834 -2.13645,39.08433 l -0.005,7.82908 -8.58182,0.89698 c -4.72,0.49333 -24.22275,0.89697 -43.33945,0.89697 h -34.75763 z m 12.79858,-13.96169 c -0.46302,-1.72776 -0.85043,-4.86914 -0.86092,-6.98084 -0.0144,-2.90233 -0.70062,-3.83947 -2.8114,-3.83947 -2.42003,0 -2.79234,0.93078 -2.79234,6.98085 0,6.59843 0.20013,6.98084 3.65326,6.98084 3.10723,0 3.52743,-0.46952 2.8114,-3.14138 z m 8.6722,-2.25623 c 2.4655,-8.22911 2.1868,-8.93035 -2.57134,-6.46982 -4.33535,2.24189 -5.83097,4.41944 -2.03494,2.96277 1.78302,-0.68421 1.99651,0.0107 1.24079,4.03913 -1.24521,6.63751 1.33988,6.22881 3.36549,-0.53208 z m 19.25118,2.25623 c -0.46302,-1.72776 -0.85044,-4.86914 -0.86092,-6.98084 -0.0144,-2.90233 -0.70062,-3.83947 -2.81141,-3.83947 -2.42002,0 -2.79233,0.93078 -2.79233,6.98085 0,6.59843 0.20012,6.98084 3.65326,6.98084 3.10722,0 3.52743,-0.46952 2.8114,-3.14138 z m 10.60697,-0.69808 0.50308,-3.83947 1.90802,3.83947 c 1.75539,3.53234 2.56017,3.83946 10.06092,3.83946 h 8.1529 v -6.98084 -6.98085 h -9.16918 c -8.74702,0 -9.12532,0.13821 -8.21647,3.00173 l 0.95271,3.00172 -4.34905,-3.09679 -4.34904,-3.0968 v 7.07592 c 0,5.21321 0.52689,7.07591 2.00151,7.07591 1.13074,0 2.22039,-1.6704 2.5046,-3.83946 z m -20.31191,-1.54161 c -0.44325,-2.21624 -0.0869,-4.69494 0.8028,-5.58467 1.20226,-1.20226 1.16066,-1.59978 -0.16741,-1.59978 -3.64304,0 -7.16829,2.99949 -7.16829,6.09919 0,3.92393 1.03897,5.07016 4.59572,5.07016 2.26229,0 2.59662,-0.68773 1.93718,-3.9849 z m 32.1565,-16.67881 c 2.12972,-1.35346 7.88822,-14.20184 6.83648,-15.25358 -0.42955,-0.42955 -1.7386,0.0137 -2.909,0.98507 -1.45525,1.20776 -2.12799,1.27065 -2.12799,0.19896 0,-0.86192 -1.23683,-1.56712 -2.74852,-1.56712 -1.86952,0 -2.49151,-0.66976 -1.94488,-2.09426 1.07753,-2.80801 -2.8392,-2.73922 -5.67814,0.0997 -1.20669,1.20669 -2.2036,2.93445 -2.21536,3.83946 -0.0135,1.04549 -0.47003,0.93698 -1.2518,-0.29757 -1.94428,-3.07037 -14.04995,-1.19685 -17.17096,2.65745 -4.30766,5.31972 -3.24904,6.96454 4.48245,6.96454 4.59511,0 7.01852,-0.59644 7.09107,-1.74522 0.0858,-1.35878 0.26392,-1.36549 0.80433,-0.0303 0.50061,1.23684 2.62088,0.73852 7.60594,-1.7876 l 6.91184,-3.5025 -0.95029,3.88186 c -0.52266,2.13502 -1.63891,4.35306 -2.48054,4.92898 -1.05051,0.71885 -0.87369,1.47812 0.56402,2.42191 2.52242,1.65587 3.00421,1.68378 5.18135,0.3002 z m -32.96677,-8.9136 c 2.20139,-4.11335 -1.83046,-9.51541 -7.10187,-9.51541 -4.57159,0 -6.69008,2.75181 -6.66485,8.65729 0.01,2.35409 0.86847,3.94183 2.28489,4.22621 4.53661,0.91083 10.05874,-0.70904 11.48183,-3.36809 z"
         id="path1849"
         transform="scale(0.26458333)" /></g>
         <g id="g5542">
       <title>Bennington, VT</title>
      <desc>Bennington is a town in Bennington County, Vermont, United States.</desc>
       <path
         style="fill:#de8787;fill-opacity:1;stroke-width:12.1157;stroke-linecap:round;stroke-linejoin:bevel;stroke-dashoffset:3;paint-order:stroke markers fill"
         d="m 156.28956,780.16687 c 0.50351,-1.31215 1.65113,-8.53732 2.55026,-16.05594 1.38304,-11.56517 2.01755,-13.67022 4.12048,-13.67022 3.66821,0 8.07037,-5.05048 8.07037,-9.25893 0,-3.48069 -0.2942,-3.63479 -5.58467,-2.92519 l -5.58468,0.74906 v -20.69549 c 0,-11.38252 -0.38135,-21.68928 -0.84746,-22.90393 -0.76151,-1.98446 3.53046,-2.20844 42.31916,-2.20844 h 43.1666 l 5.21605,40.13985 c 2.86883,22.07692 5.57066,42.18175 6.00406,44.6774 l 0.788,4.53755 H 205.9409 c -47.1204,0 -50.50444,-0.1626 -49.65134,-2.38572 z m 20.31042,-4.94416 c -0.0611,-6.93843 -1.94299,-12.21648 -4.35582,-12.21648 -2.20081,0 -2.60966,1.09367 -2.60966,6.98084 0,6.51546 0.2327,6.98085 3.49043,6.98085 1.91973,0 3.4835,-0.78535 3.47505,-1.74521 z m 7.76554,-3.09654 c 1.11265,-2.66296 2.02301,-5.82048 2.02301,-7.0167 0,-1.96716 -0.40017,-1.96801 -4.18851,-0.009 -4.33535,2.2419 -5.83097,4.41945 -2.03493,2.96277 1.78301,-0.68421 1.99651,0.0107 1.24078,4.03913 -1.17055,6.2396 0.35739,6.25188 2.95965,0.0238 z m 30.23918,-0.0945 -0.40528,-4.13888 2.67858,4.29175 c 2.4221,3.88081 3.43012,4.32215 10.52751,4.60929 l 7.84893,0.31755 v -7.05259 -7.05259 h -8.37702 c -7.64706,0 -8.37701,0.26217 -8.37701,3.00873 0,2.73401 -0.22308,2.81714 -2.44329,0.91044 -5.42009,-4.65471 -5.93372,-4.38796 -5.93372,3.08165 0,6.08448 0.36864,7.09002 2.44329,6.66457 1.78552,-0.36615 2.33419,-1.6153 2.03801,-4.63992 z m -20.26679,-1.34654 c -0.52886,-3.25904 -0.24095,-4.92331 0.86445,-4.99682 1.26771,-0.0843 1.26527,-0.26974 -0.0103,-0.78863 -2.89268,-1.17663 -7.40733,2.23765 -7.40733,5.60187 0,3.92603 1.03891,5.07017 4.60388,5.07017 2.35434,0 2.63013,-0.69134 1.94933,-4.88659 z m 11.59698,-0.84944 c 0,-5.55929 -0.11821,-5.70636 -3.8366,-4.77311 -4.96776,1.24683 -5.04807,1.36712 -3.20824,4.80489 1.20132,2.24467 1.14726,2.94976 -0.23592,3.0771 -0.98688,0.0908 0.0905,0.64479 2.39417,1.23098 2.30368,0.58619 4.34558,1.14013 4.53755,1.23098 0.19197,0.0908 0.34904,-2.41603 0.34904,-5.57084 z m 12.56552,-15.2065 c 1.53579,-1.53579 2.79234,-3.29446 2.79234,-3.90816 0,-0.6137 2.12743,-0.86745 4.72764,-0.56389 2.6002,0.30356 6.00503,-0.13172 7.56629,-0.96728 2.13058,-1.14025 2.98426,-1.08666 3.42233,0.21485 0.45977,1.36594 1.04762,1.3512 2.7692,-0.0694 1.69345,-1.39743 2.31354,-1.41946 2.75407,-0.0979 0.33352,1.00057 1.58256,1.31651 3.02161,0.7643 1.69539,-0.65059 2.31638,-2.12968 2.01053,-4.78874 -0.43872,-3.81414 -0.53005,-3.84663 -10.56477,-3.75825 -8.27124,0.0729 -10.12999,-0.31012 -10.16468,-2.09425 -0.0354,-1.81913 -0.27988,-1.77577 -1.46555,0.25989 -0.7827,1.34381 -2.8369,2.4433 -4.5649,2.4433 -1.72799,0 -3.89574,0.75393 -4.81721,1.6754 -1.30309,1.30309 -1.6754,1.10711 -1.6754,-0.88192 0,-2.17762 -0.82922,-2.44609 -5.585,-1.80821 -3.1741,0.42574 -5.24794,0.20375 -4.80419,-0.51425 0.42944,-0.69485 0.33368,-1.98681 -0.2128,-2.87103 -0.70592,-1.1422 -1.45851,-0.97188 -2.59932,0.58828 -1.18063,1.61461 -4.88401,2.36376 -13.9891,2.82982 -12.61441,0.64569 -16.09083,2.2956 -16.09083,7.63674 0,2.53751 8.17415,1.92557 11.5184,-0.8623 2.1691,-1.80823 2.44329,-1.76781 2.44329,0.36017 0,2.08617 1.49354,2.37342 11.51839,2.21532 16.32157,-0.25739 15.43248,-0.47292 14.43549,3.49941 -0.71779,2.85988 -0.3668,3.49042 1.9429,3.49042 1.55041,0 4.07549,-1.25655 5.61127,-2.79233 z"
         id="path1777"
         transform="scale(0.26458333)" /></g>
         <g id="g5547">
       <title>Shaftsbury, VT</title>
      <desc>Shaftsbury is a town in Bennington County, Vermont, United States.</desc>
       <path
         style="fill:#ffb380;fill-opacity:1;stroke-width:12.1157;stroke-linecap:round;stroke-linejoin:bevel;stroke-dashoffset:3;paint-order:stroke markers fill"
         d="m 159.86132,684.33718 c 0,-2.56966 0.40822,-10.42311 0.90715,-17.45211 0.75876,-10.6894 1.29167,-12.78 3.25773,-12.78 1.29282,0 2.79033,-0.43976 3.32781,-0.97724 0.53748,-0.53747 4.72922,-1.13095 9.31498,-1.31884 8.20932,-0.33635 8.32456,-0.28903 7.48112,3.07149 -0.49606,1.97648 -0.24723,3.41309 0.59117,3.41309 2.48778,0 5.93796,-4.35047 6.77692,-8.5453 0.99748,-4.98737 3.24734,-5.28924 3.24734,-0.43571 0,2.75322 0.56663,3.42003 2.4433,2.87528 6.26591,-1.81882 18.39723,-2.33745 24.08391,-1.02962 5.73572,1.31912 6.49279,1.17601 8.69501,-1.64358 l 2.41225,-3.0885 0.031,3.72311 c 0.0171,2.04772 -0.7543,4.01108 -1.71417,4.36303 -1.31836,0.4834 -1.35273,1.058 -0.14054,2.34929 3.04241,3.24094 7.22163,0.17815 10.05053,-7.36565 2.94866,-7.86314 2.84819,-9.32721 -0.45211,-6.58821 -1.45526,1.20776 -2.128,1.27065 -2.128,0.19896 0,-0.96334 -2.87637,-1.56712 -7.46557,-1.56712 -6.3624,0 -7.68945,0.46419 -8.9806,3.14138 l -1.51503,3.14138 -0.0945,-3.14138 c -0.052,-1.72776 -0.97808,-3.14138 -2.05803,-3.14138 -1.34664,0 -1.70645,-0.98315 -1.14523,-3.12925 0.80346,-3.07245 0.75674,-3.08474 -2.57401,-0.67679 -1.86577,1.34886 -4.80594,3.17201 -6.5337,4.05145 -1.88853,0.96126 -3.14138,2.88416 -3.14138,4.82146 0,2.3148 -0.59993,2.99228 -2.12988,2.40519 -1.6987,-0.65185 -1.78754,-1.22983 -0.43882,-2.85493 1.21733,-1.4668 1.25833,-2.30506 0.14633,-2.99232 -0.84961,-0.52508 -1.98836,-2.7222 -2.53055,-4.88248 l -0.98581,-3.92777 -4.36052,4.14161 c -2.71528,2.57896 -6.2532,4.34585 -9.37685,4.68293 -6.22635,0.6719 -8.98121,-1.70297 -5.7378,-4.94638 2.10575,-2.10575 2.0519,-2.2774 -0.7144,-2.2774 -1.64548,0 -3.97908,0.98729 -5.18577,2.19398 -1.40582,1.40582 -2.19398,1.59519 -2.19398,0.52713 0,-1.26003 -0.51113,-1.24264 -2.09425,0.0712 -1.15184,0.95594 -2.09425,1.22693 -2.09425,0.60219 0,-0.62474 -0.92244,0.0837 -2.04985,1.57425 -1.83131,2.4212 -2.0547,0.40291 -2.09528,-18.93047 l -0.0454,-21.64061 43.59109,0.42518 c 23.9751,0.23385 43.8493,0.68339 44.16488,0.99897 0.31558,0.31558 -0.76853,18.65839 -2.40914,40.76179 -1.64061,22.10341 -2.9802,41.60164 -2.97687,43.32939 l 0.006,3.14138 H 202.4444 159.86125 Z m 13.94632,-6.84629 c -0.0611,-6.93842 -1.94299,-12.21647 -4.35581,-12.21647 -2.20082,0 -2.60966,1.09366 -2.60966,6.98084 0,6.51545 0.23269,6.98084 3.49042,6.98084 1.91973,0 3.48351,-0.78534 3.47505,-1.74521 z m 8.69561,-5.23563 c 1.22782,-3.83946 1.94481,-6.98084 1.59333,-6.98084 -0.35148,0 -2.64975,1.06787 -5.10727,2.37306 -3.55674,1.88898 -3.95249,2.48281 -1.94006,2.91105 2.00703,0.4271 2.3439,1.37689 1.63428,4.60778 -1.48941,6.78124 1.43232,4.55456 3.81972,-2.91105 z m 19.24314,4.36303 c 0,-6.65014 -1.80529,-11.34387 -4.36303,-11.34387 -2.2106,0 -2.61782,1.0859 -2.61782,6.98084 0,6.51545 0.2327,6.98084 3.49042,6.98084 2.48208,0 3.49043,-0.75626 3.49043,-2.61781 z m 10.57274,-1.91974 -0.81847,-4.53754 2.35701,4.53754 c 2.24885,4.32934 2.72978,4.53755 10.48072,4.53755 h 8.12371 v -6.98084 -6.98084 h -8.37701 c -7.53818,0 -8.37702,0.28913 -8.37702,2.8874 v 2.88741 l -4.1885,-2.98248 -4.18851,-2.98248 v 7.07592 c 0,6.23526 0.34492,7.07591 2.90327,7.07591 2.5126,0 2.79314,-0.61058 2.0848,-4.53755 z m -20.5383,-0.69892 c -0.22155,-2.11216 0.0823,-4.62527 0.67526,-5.58467 1.58372,-2.56252 -1.89673,-2.16116 -4.9105,0.56627 -4.28728,3.87994 -3.17831,8.8587 1.9732,8.8587 2.07412,0 2.57557,-0.85131 2.26204,-3.8403 z"
         id="path1705"
         transform="scale(0.26458333)" /></g><g
       id="g5551">
       <title>Arlington, VT</title>
      <desc>Arlington is a town in Bennington County, Vermont, United States. </desc>
       <path
         style="fill:#9cee9c;stroke-width:12.1157;stroke-linecap:round;stroke-linejoin:bevel;stroke-dashoffset:3;paint-order:stroke markers fill;fill-opacity:1"
         d="m 204.13335,597.21191 -41.59235,-0.39149 0.74375,-10.10136 c 0.40907,-5.55575 1.13391,-26.90774 1.61077,-47.44888 l 0.86701,-37.34751 h 43.12297 43.12296 v 37.48591 c 0,46.08603 -0.89131,58.98353 -4.04433,58.52227 -1.23114,-0.1801 -20.95499,-0.50363 -43.83078,-0.71894 z m -26.63802,-21.64134 c -0.46302,-1.72776 -0.85043,-4.555 -0.86092,-6.28276 -0.0134,-2.20424 -0.85207,-3.14138 -2.8114,-3.14138 -2.37866,0 -2.79234,0.93078 -2.79234,6.28276 0,5.84551 0.25425,6.28276 3.65326,6.28276 3.10723,0 3.52743,-0.46952 2.8114,-3.14138 z m 8.76897,-2.57922 c 0.94267,-3.14633 1.4118,-6.02274 1.04252,-6.39202 -0.36929,-0.36928 -2.45473,0.29501 -4.63432,1.4762 -2.94923,1.59827 -3.30955,2.16191 -1.40867,2.20351 2.10551,0.0461 2.39262,0.79172 1.63428,4.24441 -1.3839,6.30084 1.39885,5.03429 3.36619,-1.5321 z m 9.08812,0.69772 c -0.0612,-2.22872 0.56712,-4.5138 1.39617,-5.07796 0.87443,-0.59504 0.30557,-1.03473 -1.35477,-1.04713 -1.57418,-0.0118 -3.61608,0.73255 -4.53755,1.65402 -2.19659,2.19659 -2.15193,7.67448 0.0698,8.56317 3.17581,1.27033 4.53892,0.0102 4.42634,-4.0921 z m 10.05891,0.65985 c -0.47993,-2.39966 -0.87261,-5.2269 -0.87261,-6.28275 0,-1.05586 -1.25655,-1.91974 -2.79233,-1.91974 -2.37866,0 -2.79234,0.93078 -2.79234,6.28276 0,5.85061 0.25209,6.28276 3.66494,6.28276 3.36011,0 3.59237,-0.36289 2.79234,-4.36303 z m 10.92542,0.52357 -0.8207,-3.83947 2.51364,3.83947 c 2.26146,3.45426 3.32164,3.83946 10.56728,3.83946 h 8.05364 v -6.28276 -6.28276 h -8.37702 c -6.78059,0 -8.37701,0.42971 -8.37701,2.25483 0,2.07566 -0.27345,2.07566 -3.4413,0 -1.89272,-1.24016 -3.77754,-2.25483 -4.18851,-2.25483 -0.41096,0 -0.7472,2.82724 -0.7472,6.28276 0,5.37175 0.40875,6.28276 2.81893,6.28276 2.34339,0 2.68049,-0.64772 1.99825,-3.83946 z m -5.6078,-15.91878 c 1.94111,-0.88442 3.86934,-2.67948 4.28497,-3.98901 0.5262,-1.65792 1.79159,-2.18295 4.16684,-1.72889 1.87613,0.35865 5.3178,-0.0126 7.64816,-0.82495 3.05035,-1.06336 4.23701,-1.04574 4.23701,0.0629 0,0.84696 1.25655,0.40277 2.79234,-0.9871 2.51113,-2.27254 2.79234,-2.29433 2.79234,-0.21639 0,2.57429 0.22576,2.67213 3.37623,1.46319 1.37229,-0.5266 2.20844,-2.52617 2.20844,-5.28128 v -4.43381 l -9.93674,0.56148 c -7.37489,0.41671 -10.24902,0.0685 -11.14797,-1.35053 -0.88278,-1.39353 -1.21703,-1.43876 -1.23261,-0.1668 -0.0117,0.95987 -1.38553,1.74521 -3.05282,1.74521 -1.6673,0 -4.1804,1.03979 -5.58468,2.31065 -2.39501,2.16745 -2.55323,2.13243 -2.55323,-0.56524 0,-2.55165 -0.63278,-2.79099 -5.61285,-2.12303 -4.77825,0.6409 -5.48332,0.4153 -4.74173,-1.51725 1.49177,-3.88748 -2.80863,-4.00772 -11.16496,-0.31215 -7.52351,3.32725 -7.91406,3.36967 -7.08892,0.76988 0.69841,-2.20048 0.22544,-2.74708 -2.36221,-2.72998 -4.78987,0.0317 -7.15492,2.01205 -6.15715,5.15574 0.64386,2.02863 -0.0376,3.14581 -2.64293,4.33288 -3.78594,1.72499 -4.96957,5.31034 -1.28652,3.89702 5.26053,-2.01866 8.70375,-2.362 9.57356,-0.95463 1.47075,2.37972 7.46405,1.76004 9.03318,-0.934 1.34029,-2.30114 1.42556,-2.29525 1.46554,0.10122 0.0361,2.16199 1.14438,2.51141 7.37234,2.32427 11.32272,-0.34023 11.22158,-0.37486 10.24698,3.50822 -0.97302,3.87683 0.13624,4.26585 5.36739,1.88238 z"
         id="path1010"
         transform="scale(0.26458333)" /></g><g
       id="g5555">
       <title>Sandgate</title>
      <desc>Sandgate is a town in Bennington County, Vermont, United States. The population was 387 at the 2020 census.</desc>
       <path
         style="fill:#c8beb7;stroke-width:12.1157;stroke-linecap:round;stroke-linejoin:bevel;stroke-dashoffset:3;paint-order:stroke markers fill"
         d="m 165.4354,472.25408 c -0.01,-23.88494 -1.32137,-42.91023 -3.57748,-51.8993 l -0.97555,-3.8869 41.0255,0.89783 c 22.56402,0.49381 42.97144,1.19747 45.34982,1.56369 l 4.32433,0.66584 1.69224,13.96263 c 1.56647,12.92485 1.16199,47.48216 -0.69805,59.63875 l -0.69428,4.53754 H 208.66397 165.446 Z m 13.4561,9.77319 c -0.46302,-1.72776 -0.85043,-4.55501 -0.86092,-6.28276 -0.0134,-2.20425 -0.85207,-3.14138 -2.8114,-3.14138 -2.37866,0 -2.79234,0.93078 -2.79234,6.28276 0,5.8455 0.25425,6.28275 3.65326,6.28275 3.10723,0 3.52743,-0.46952 2.8114,-3.14137 z m 8.76897,-2.57923 c 0.94266,-3.14633 1.41179,-6.02274 1.04251,-6.39202 -0.36928,-0.36928 -2.45472,0.29501 -4.63431,1.4762 -2.94923,1.59827 -3.30955,2.16191 -1.40867,2.20351 2.10551,0.0461 2.39261,0.79172 1.63428,4.24441 -1.3839,6.30084 1.39885,5.0343 3.36619,-1.5321 z m 19.15441,2.57923 c -0.46302,-1.72776 -0.85044,-4.55501 -0.86092,-6.28276 -0.0134,-2.20425 -0.85207,-3.14138 -2.81141,-3.14138 -2.37865,0 -2.79233,0.93078 -2.79233,6.28276 0,5.8455 0.25425,6.28275 3.65326,6.28275 3.10722,0 3.52743,-0.46952 2.8114,-3.14137 z m 10.34526,-0.69809 0.0559,-3.83946 2.08295,3.83946 c 1.91339,3.52694 2.76118,3.83946 10.41536,3.83946 h 8.33242 v -6.28275 -6.28276 h -9.03127 c -7.4542,0 -8.89095,0.3657 -8.22764,2.09425 1.03211,2.68965 -0.14599,2.64696 -4.43082,-0.16057 l -3.4413,-2.25483 v 6.44333 c 0,4.79663 0.53522,6.44333 2.09425,6.44333 1.34031,0 2.11438,-1.38223 2.15015,-3.83946 z m -20.10033,0.33126 c 0.44576,-1.16162 0.035,-3.04644 -0.91285,-4.1885 -1.40908,-1.69784 -1.29524,-2.07648 0.62428,-2.07648 1.29118,0 1.95931,-0.62827 1.48472,-1.39617 -2.13896,-3.46091 -7.67892,1.14373 -7.67892,6.38249 0,2.47738 0.76394,3.3907 2.83615,3.3907 1.55989,0 3.20087,-0.95042 3.64662,-2.11204 z m 14.1491,-19.60775 c 1.70665,-1.19538 3.11262,-3.55141 3.12437,-5.23563 0.0131,-1.87284 0.4243,-2.42884 1.05876,-1.4315 0.60846,0.95646 4.78483,1.65935 10.10085,1.69998 10.33016,0.079 15.28223,-0.9464 12.59421,-2.60768 -1.31736,-0.81418 -1.34934,-1.76753 -0.13535,-4.03588 1.48179,-2.76875 1.25516,-2.96989 -3.34628,-2.96989 -2.959,0 -4.97985,-0.69894 -5.04593,-1.74521 -0.0882,-1.39617 -0.25107,-1.39617 -0.81443,0 -0.42558,1.05467 -3.34581,1.74521 -7.38042,1.74521 -4.734,0 -7.79536,0.88032 -10.52317,3.02602 -3.5942,2.8272 -3.79857,2.85013 -3.11039,0.34904 1.80706,-6.56758 2.37826,-10.35591 1.56144,-10.35591 -0.48622,0 -3.29966,2.67018 -6.2521,5.93372 -3.84671,4.25205 -5.3843,5.24127 -5.42533,3.49042 -0.0473,-2.02056 -1.37159,-2.44329 -7.65379,-2.44329 -4.17809,0 -7.99116,0.63852 -8.47349,1.41894 -1.63071,2.63854 -3.54152,-0.0846 -2.03483,-2.89984 1.95394,-3.65097 -0.18334,-3.41553 -4.76972,0.52544 -2.50307,2.15082 -3.46046,4.02022 -2.86012,5.58467 0.68659,1.78923 0.11541,2.36225 -2.38835,2.39603 -3.21704,0.0434 -3.2291,0.091 -0.53848,2.12507 1.52565,1.15335 3.70349,1.64212 4.88659,1.09668 1.17387,-0.54119 8.89211,-1.02626 17.15164,-1.07794 11.48843,-0.0719 14.85129,0.31615 14.31073,1.65126 -0.38863,0.95986 -1.08795,2.68762 -1.55406,3.83946 -1.14117,2.8201 3.44736,2.77177 7.51765,-0.0792 z"
         id="path593"
         transform="scale(0.26458333)" /></g>
         <g id="g5559">
       <title>Rupert, VT</title>
      <desc>Rupert is a town in Bennington County, Vermont, United States. The population was 698 at the 2020 census.</desc>
       <path
         style="fill:#0000ff;stroke-width:12.1157;stroke-linecap:round;stroke-linejoin:bevel;stroke-dashoffset:3;paint-order:stroke markers fill"
         d="m 201.74672,414.35404 c -23.42055,-1.11001 -42.7237,-2.15909 -42.8959,-2.33128 -0.88277,-0.88277 -0.63795,-72.50464 0.27136,-79.38555 l 1.06089,-8.02797 h 45.7824 45.7824 l 0.99986,13.33625 c 1.3317,17.7624 0.0137,60.74102 -2.17078,70.78292 -1.28328,5.89937 -2.34304,7.97704 -3.99687,7.8359 -1.2378,-0.10563 -21.41281,-1.10025 -44.83336,-2.21027 z m -26.54291,-31.45476 c -0.0611,-6.93842 -1.94299,-12.21647 -4.35581,-12.21647 -2.20082,0 -2.60966,1.09366 -2.60966,6.98084 0,6.51545 0.23269,6.98084 3.49042,6.98084 1.91973,0 3.4835,-0.78534 3.47505,-1.74521 z m 8.17139,-3.6524 c 2.47988,-8.27711 2.17321,-8.93098 -2.92039,-6.22686 -3.59641,1.90928 -4.01318,2.5205 -2.00939,2.9469 2.00703,0.4271 2.3439,1.37689 1.63428,4.60778 -1.32657,6.03981 1.41961,4.93332 3.2955,-1.32782 z m 19.75199,3.6524 c -0.0611,-6.93842 -1.94299,-12.21647 -4.35582,-12.21647 -2.20081,0 -2.60966,1.09366 -2.60966,6.98084 0,6.51545 0.2327,6.98084 3.49042,6.98084 1.91974,0 3.48351,-0.78534 3.47506,-1.74521 z m 10.58811,-2.79233 -0.81847,-4.53755 2.35701,4.53755 c 2.24885,4.32933 2.72977,4.53754 10.48072,4.53754 h 8.12371 v -6.98084 -6.98084 h -8.37701 c -7.53818,0 -8.37702,0.28913 -8.37702,2.8874 v 2.88741 l -4.1885,-2.98248 -4.18851,-2.98247 v 7.07591 c 0,6.23526 0.34492,7.07591 2.90327,7.07591 2.5126,0 2.79313,-0.61058 2.0848,-4.53754 z m -20.5383,-0.69893 c -0.22155,-2.11216 0.0823,-4.62527 0.67526,-5.58467 1.58003,-2.55654 -2.62213,-2.19802 -5.26975,0.44961 -2.25807,2.25807 -2.90837,6.39942 -1.2632,8.04459 0.51193,0.51192 2.12997,0.93078 3.59564,0.93078 2.07413,0 2.57557,-0.85132 2.26205,-3.84031 z m 15.55023,-21.98882 c 1.76699,-5.35404 2.2343,-5.56046 7.79865,-3.4449 3.18253,1.21 4.319,0.94651 7.07173,-1.63954 l 3.27981,-3.08123 v 3.18509 c 0,2.33077 0.59236,2.95777 2.20845,2.33762 1.21464,-0.4661 2.85255,-0.84746 3.63979,-0.84746 0.78725,0 1.07744,-0.92229 0.64487,-2.04954 -0.43256,-1.12725 -0.18564,-2.42088 0.54871,-2.87473 2.0593,-1.27272 1.58004,-3.45274 -0.75906,-3.45274 -1.15184,0 -2.09425,-0.70521 -2.09425,-1.56712 0,-1.11546 -0.51536,-1.13941 -1.78813,-0.0831 -1.05568,0.87614 -7.38829,1.3576 -15.45992,1.17538 -11.02781,-0.24895 -13.91384,0.10463 -14.92344,1.82832 -1.10935,1.89401 -1.25648,1.88431 -1.2941,-0.0854 -0.0263,-1.37912 -2.23235,-2.8784 -5.81422,-3.95156 -6.92409,-2.0745 -8.77634,-0.76128 -10.1849,7.221 -0.86833,4.92073 -0.71016,5.23563 2.62979,5.23563 2.72831,0 3.57424,-0.72962 3.64219,-3.14138 0.0852,-3.02416 0.13146,-3.03537 1.23999,-0.30057 0.63332,1.56245 2.17597,3.69105 3.42811,4.73024 1.93127,1.60281 2.65996,1.54251 4.80366,-0.39752 2.78317,-2.51873 5.79759,-3.02472 5.79759,-0.97317 0,0.72258 -0.62827,1.70207 -1.39616,2.17665 -2.72482,1.68403 -1.42326,4.88659 1.98597,4.88659 2.62735,0 3.74206,-1.09055 4.99487,-4.88659 z"
         id="path521"
         transform="scale(0.26458333)" /></g>
         <g id="g5615">
       <title>Pawlet, VT</title>
      <desc>Pawlet is a town in Rutland County, Vermont, United States. The population was 1,424 at the 2020 census.</desc>
      <path
         style="fill:#550000;stroke-width:12.1157;stroke-linecap:round;stroke-linejoin:bevel;stroke-dashoffset:3;paint-order:stroke markers fill"
         d="m 161.78106,313.26537 c 0.47993,-2.39967 0.8726,-13.70864 0.8726,-25.13104 v -20.76801 h 46.19044 46.19045 l -0.87491,20.59349 c -0.4812,11.32642 -1.19054,22.63538 -1.57631,25.13103 l -0.7014,4.53755 h -45.48674 -45.48674 z m 15.71427,-4.36303 c -0.46302,-1.72776 -0.85043,-4.555 -0.86092,-6.28276 -0.0134,-2.20425 -0.85207,-3.14138 -2.8114,-3.14138 -2.37866,0 -2.79234,0.93078 -2.79234,6.28276 0,5.84551 0.25425,6.28276 3.65326,6.28276 3.10723,0 3.52743,-0.46953 2.8114,-3.14138 z m 8.76897,-2.57922 c 0.94267,-3.14633 1.4118,-6.02274 1.04252,-6.39202 -0.36929,-0.36929 -2.45473,0.295 -4.63432,1.47619 -2.94923,1.59828 -3.30955,2.16192 -1.40867,2.20352 2.10551,0.0461 2.39262,0.79171 1.63428,4.2444 -1.3839,6.30085 1.39885,5.0343 3.36619,-1.53209 z m 9.08812,0.69772 c -0.0612,-2.22872 0.56712,-4.5138 1.39617,-5.07797 0.87443,-0.59503 0.30557,-1.03472 -1.35477,-1.04712 -1.57418,-0.0118 -3.61608,0.73255 -4.53755,1.65402 -2.19659,2.19659 -2.15193,7.67448 0.0698,8.56317 3.17581,1.27032 4.53892,0.0102 4.42634,-4.0921 z m 10.05891,0.65985 c -0.47993,-2.39966 -0.87261,-5.22691 -0.87261,-6.28276 0,-1.05585 -1.25655,-1.91973 -2.79233,-1.91973 -2.37866,0 -2.79234,0.93078 -2.79234,6.28276 0,5.85061 0.25209,6.28276 3.66494,6.28276 3.36011,0 3.59237,-0.3629 2.79234,-4.36303 z m 10.92542,0.52356 -0.8207,-3.83946 2.51364,3.83946 c 2.26146,3.45427 3.32164,3.83947 10.56728,3.83947 h 8.05364 v -6.28276 -6.28276 h -8.37702 c -6.78059,0 -8.37701,0.42971 -8.37701,2.25483 0,2.07565 -0.27345,2.07565 -3.4413,0 -1.89272,-1.24016 -3.77754,-2.25483 -4.18851,-2.25483 -0.41096,0 -0.7472,2.82724 -0.7472,6.28276 0,5.37174 0.40875,6.28276 2.81893,6.28276 2.34339,0 2.68049,-0.64772 1.99825,-3.83947 z m -29.30976,-17.00659 c 0.44179,-0.71483 0.0793,-1.74715 -0.80561,-2.29403 -1.08055,-0.66782 -0.51495,-1.82091 1.72244,-3.51151 4.30403,-3.25219 2.05908,-5.84179 -4.51914,-5.21294 -3.76134,0.35957 -4.71508,1.06064 -4.71508,3.46597 0,1.65837 -0.47121,3.49084 -1.04712,4.07216 -0.57592,0.58131 -1.04713,1.89463 -1.04713,2.91849 0,2.14751 9.12724,2.64006 10.41164,0.56186 z m 25.23788,-2.39821 c 1.85971,-2.4548 1.96046,-2.42063 2.00263,0.67925 0.0416,3.05905 0.41716,3.20251 5.97812,2.28379 6.76499,-1.11764 7.93303,-1.78656 5.61794,-3.21736 -1.05876,-0.65435 -1.18171,-1.72997 -0.35039,-3.06547 0.9811,-1.57612 1.49817,-0.97805 2.21038,2.55668 0.65422,3.2469 1.52782,4.38455 2.94831,3.83946 1.11024,-0.42604 2.66273,-0.77461 3.44997,-0.77461 0.78725,0 1.07744,-0.9223 0.64487,-2.04954 -0.43256,-1.12725 -0.18564,-2.42088 0.54871,-2.87474 2.0593,-1.27271 1.58004,-3.45274 -0.75906,-3.45274 -1.15184,0 -2.09425,-1.03978 -2.09425,-2.31064 0,-2.07794 -0.2812,-2.05615 -2.79234,0.21639 -1.53578,1.38987 -2.79234,2.03859 -2.79234,1.44161 0,-0.59699 -0.95759,-0.2907 -2.12799,0.68065 -2.58058,2.14169 -4.6456,0.60245 -2.31648,-1.72668 0.90868,-0.90867 1.65214,-2.46889 1.65214,-3.46715 0,-2.68608 -3.75612,-2.2012 -5.85455,0.75577 -1.83931,2.59183 -3.37892,2.97032 -12.29565,3.02266 -8.21896,0.0482 -13.59339,2.51066 -15.13563,6.93473 l -1.39731,4.00834 10.45234,-0.44778 c 8.18898,-0.35081 10.87638,-1.0075 12.41058,-3.03262 z"
         id="path449"
         transform="scale(0.26458333)" /></g>
         <g id="g5619">
       <title>Wells, VT</title>
      <desc>Wells is a town in Rutland County, Vermont, United States. As of the 2020 census, the town had a total population of 1,214.</desc>
      <path
         style="fill:#cbac98;stroke-width:12.1157;stroke-linecap:round;stroke-linejoin:bevel;stroke-dashoffset:3;paint-order:stroke markers fill"
         d="m 163.14268,250.39781 c 0.49893,-7.02901 0.90715,-28.70453 0.90715,-48.16783 v -35.38781 l 24.782,0.0307 24.78199,0.0307 4.18851,6.38359 c 5.11355,7.79343 17.3474,18.14563 25.82912,21.85643 12.25754,5.36275 12.56665,6.02101 12.55715,26.74159 -0.005,10.04073 -0.41186,23.43914 -0.90502,29.77426 l -0.89665,11.51839 h -46.0757 -46.0757 z m 18.50863,-6.18247 c -0.4661,-1.21464 -0.84746,-4.04188 -0.84746,-6.28275 0,-3.14354 -0.63791,-4.07432 -2.79233,-4.07432 -2.37866,0 -2.79234,0.93078 -2.79234,6.28276 0,5.83958 0.25674,6.28276 3.6398,6.28276 2.74541,0 3.43155,-0.54267 2.79233,-2.20845 z m 8.8015,-3.51215 c 0.94266,-3.14633 1.43744,-5.9971 1.0995,-6.33504 -0.8959,-0.8959 -7.95612,2.52848 -7.95612,3.85891 0,0.62054 0.93996,0.76755 2.08881,0.3267 1.67924,-0.64439 1.91877,0.0486 1.22165,3.53424 -1.2815,6.40748 1.54186,5.30493 3.54616,-1.38481 z m 8.89609,0.83338 c -0.16678,-2.24384 0.4615,-4.56563 1.39617,-5.15954 1.12065,-0.71209 0.72467,-1.08712 -1.16275,-1.10121 -3.68583,-0.0275 -6.21295,2.53821 -6.21295,6.30791 0,3.67038 1.29144,5.07594 4.12043,4.48457 1.44736,-0.30256 2.06207,-1.80097 1.8591,-4.53173 z m 10.25832,1.74584 c -0.46303,-1.72776 -0.85044,-4.555 -0.86093,-6.28276 -0.0134,-2.20425 -0.85207,-3.14138 -2.8114,-3.14138 -2.37866,0 -2.79234,0.93078 -2.79234,6.28276 0,5.84551 0.25425,6.28276 3.65326,6.28276 3.10723,0 3.52743,-0.46953 2.81141,-3.14138 z m 10.34526,-0.69809 0.0559,-3.83946 2.08295,3.83946 c 1.91339,3.52694 2.76118,3.83947 10.41536,3.83947 h 8.33242 v -6.28276 -6.28276 h -8.94439 c -8.57794,0 -8.91216,0.1287 -8.15782,3.14138 0.74009,2.95579 0.62926,3.00958 -1.87592,0.91044 -5.62425,-4.71263 -6.15291,-4.52803 -6.15291,2.14854 0,4.72714 0.53894,6.36516 2.09426,6.36516 1.34031,0 2.11437,-1.38223 2.15015,-3.83947 z m -24.40952,-20.24444 c -1.14037,3.71002 -0.41914,3.8858 4.0171,0.97906 3.99761,-2.61933 7.04781,-9.43727 5.73603,-12.82142 -0.89739,-2.31513 -1.08062,-2.30012 -2.95133,0.24177 -1.097,1.49058 -1.99454,2.16641 -1.99454,1.50184 0,-0.66457 -1.57069,0.26728 -3.49042,2.07078 l -3.49043,3.27908 v -3.03571 c 0,-3.60258 -1.104,-3.78308 -5.27402,-0.86229 -3.50615,2.45581 -4.1975,5.13979 -1.00874,3.91614 1.59935,-0.61372 2.09426,0.279 2.09426,3.77762 v 4.58125 l 3.66384,-3.38475 3.66384,-3.38475 z m 28.6137,2.31719 c 3.92077,-0.57225 5.2897,-1.602 6.54269,-4.92154 1.38604,-3.67203 1.28963,-4.14169 -0.76966,-3.74936 -1.2948,0.24668 -2.55495,1.85572 -2.80033,3.57563 -0.24538,1.71991 -0.99365,3.12712 -1.66281,3.12712 -2.56992,0 -2.52738,-2.46509 0.11758,-6.81438 3.04837,-5.01264 2.54863,-7.14731 -1.67323,-7.14731 -4.72239,0 -7.90379,2.54241 -9.59546,7.66821 -0.88894,2.69352 -2.21791,4.89731 -2.95327,4.89731 -0.79944,0 -0.73616,-1.12271 0.1574,-2.79234 1.18119,-2.20708 1.06177,-2.79234 -0.5698,-2.79234 -2.20516,0 -6.41105,5.13578 -6.41105,7.82849 0,1.74818 11.00931,2.37699 19.61794,1.12051 z"
         id="path377"
         transform="scale(0.26458333)" /></g></g></svg>
